<svg id="Layer_1" data-name="Layer 1" xmlns="http://www.w3.org/2000/svg" xmlns:xlink="http://www.w3.org/1999/xlink" viewBox="0 0 150.07 82.98"><defs><style>.cls-1{fill:#e6e5e7;}.cls-2{fill:#c5c1c0;}.cls-3{fill:#6bcde9;}.cls-4{fill:#44bbd7;}.cls-5{fill:#f6fbfd;}.cls-6{fill:#d7e8e7;}.cls-7{fill:#e57e25;}.cls-8{fill:#3d97d3;}.cls-9{fill:#e8e7e7;}.cls-10{fill:#f9f9fa;}.cls-11{fill:#787d8a;}.cls-12{fill:#424d53;}.cls-13{fill:#bcbabb;}.cls-14{fill:#95a5a6;}.cls-15{fill:#24ad84;}.cls-16{fill:#dee3e9;}.cls-17{fill:#4fba6f;}.cls-18{fill:#3ebb93;}.cls-19{fill:#abaaaa;}.cls-20{font-size:3.73px;fill:#daa227;font-family:Bebas;}.cls-21{fill:url(#linear-gradient);}.cls-22{fill:url(#linear-gradient-3);}.cls-23{fill:url(#linear-gradient-4);}.cls-24{fill:url(#linear-gradient-5);}.cls-25{fill:url(#linear-gradient-6);}.cls-26{font-size:8.17px;fill:#010101;font-family:NasalizationRg-Regular, Nasalization;}.cls-27{fill:none;letter-spacing:0em;}</style><linearGradient id="linear-gradient" x1="71.97" y1="32.85" x2="72.45" y2="32.85" gradientUnits="userSpaceOnUse"><stop offset="0" stop-color="#4372b8"/><stop offset="0.25" stop-color="#34c4f3"/><stop offset="0.72" stop-color="#4a95d0"/><stop offset="0.99" stop-color="#4372b8"/></linearGradient><linearGradient id="linear-gradient-3" x1="73.49" y1="54.45" x2="73.43" y2="32.16" xlink:href="#linear-gradient"/><linearGradient id="linear-gradient-4" x1="66.29" y1="40.52" x2="79.45" y2="40.52" xlink:href="#linear-gradient"/><linearGradient id="linear-gradient-5" x1="67.55" y1="48.75" x2="72.32" y2="48.75" xlink:href="#linear-gradient"/><linearGradient id="linear-gradient-6" x1="55.96" y1="58.13" x2="94.8" y2="58.13" xlink:href="#linear-gradient"/></defs><rect class="cls-1" x="55.3" y="3.69" width="1.05" height="19.37"/><rect class="cls-2" x="55.3" y="22.4" width="1.05" height="0.73"/><polygon class="cls-2" points="56.36 3.69 55.3 3.69 55.04 2.12 56.62 2.12 56.36 3.69"/><polygon class="cls-1" points="55.3 0 56.36 0 56.62 2.12 55.04 2.12 55.3 0"/><path class="cls-3" d="M59.84,26.58H55.46a.85.85,0,0,1-.84-.84h0a.85.85,0,0,1,.84-.85h4.38a.85.85,0,0,1,.85.85h0A.85.85,0,0,1,59.84,26.58Z" transform="translate(-1.82 -1.82)"/><path class="cls-3" d="M53.75,24.76h4.17a0,0,0,0,1,0,0v9.06a1.35,1.35,0,0,1-1.35,1.35H55.1a1.35,1.35,0,0,1-1.35-1.35V24.76a0,0,0,0,1,0,0Z"/><rect class="cls-4" x="53.75" y="24.76" width="4.17" height="0.73"/><path class="cls-4" d="M56.8,35.45h0a.27.27,0,0,1-.26-.27V28.61a.26.26,0,0,1,.26-.26h0a.26.26,0,0,1,.27.26v6.57A.27.27,0,0,1,56.8,35.45Z" transform="translate(-1.82 -1.82)"/><path class="cls-4" d="M58.5,35.45h0a.27.27,0,0,1-.26-.27V28.61a.26.26,0,0,1,.26-.26h0a.25.25,0,0,1,.26.26v6.57A.26.26,0,0,1,58.5,35.45Z" transform="translate(-1.82 -1.82)"/><rect class="cls-5" x="45.4" y="13.86" width="4.5" height="18.94" transform="translate(-5.05 6.46) rotate(-9.62)"/><rect class="cls-5" x="45.4" y="13.86" width="4.5" height="18.94" transform="translate(-5.05 6.46) rotate(-9.62)"/><path class="cls-6" d="M48.28,13.62l.44,2.57a4.22,4.22,0,0,1-2.11,1A4.34,4.34,0,0,1,44.28,17l-.43-2.58Z" transform="translate(-1.82 -1.82)"/><path class="cls-6" d="M47,33.05l-.44-2.57A4.24,4.24,0,0,1,51,29.72l.44,2.58Z" transform="translate(-1.82 -1.82)"/><path class="cls-5" d="M49.88,11.05A4.25,4.25,0,1,1,43.2,8.31l.6,3.55,3.7-.63-.6-3.54A4.25,4.25,0,0,1,49.88,11.05Z" transform="translate(-1.82 -1.82)"/><path class="cls-5" d="M45.41,35.62a4.26,4.26,0,1,1,6.69,2.73l-.6-3.54-3.71.63.6,3.54A4.25,4.25,0,0,1,45.41,35.62Z" transform="translate(-1.82 -1.82)"/><rect class="cls-5" x="107.41" y="36.79" width="4.5" height="18.94" transform="translate(40.25 -53.53) rotate(32.52)"/><rect class="cls-5" x="100.19" y="44.01" width="18.94" height="4.5" transform="translate(9.87 112.03) rotate(-57.48)"/><path class="cls-6" d="M116.65,39.49l-1.4,2.2A4.24,4.24,0,0,1,113,41a4.14,4.14,0,0,1-1.55-1.75l1.41-2.2Z" transform="translate(-1.82 -1.82)"/><path class="cls-6" d="M102.67,53l1.4-2.2a4.22,4.22,0,0,1,3.8,2.42l-1.4,2.2Z" transform="translate(-1.82 -1.82)"/><path class="cls-5" d="M119.55,38.65a4.25,4.25,0,1,1-3.11-6.51l-1.93,3,3.16,2,1.93-3A4.25,4.25,0,0,1,119.55,38.65Z" transform="translate(-1.82 -1.82)"/><path class="cls-5" d="M99.77,53.87a4.25,4.25,0,1,1,3.11,6.51l1.93-3-3.16-2-1.93,3A4.25,4.25,0,0,1,99.77,53.87Z" transform="translate(-1.82 -1.82)"/><rect class="cls-5" x="34.23" y="35.27" width="3.69" height="3.69" transform="translate(-14.68 18.44) rotate(-26.81)"/><path class="cls-6" d="M36.9,34.63,37.57,36A8.89,8.89,0,0,1,36,37a8.76,8.76,0,0,1-1.74.66L33.6,36.3Z" transform="translate(-1.82 -1.82)"/><path class="cls-5" d="M26,17.22A10.7,10.7,0,1,0,40.4,21.94,10.71,10.71,0,0,0,26,17.22Zm8.16,16.15a7.39,7.39,0,1,1,3.26-9.94A7.4,7.4,0,0,1,34.19,33.37Z" transform="translate(-1.82 -1.82)"/><path class="cls-6" d="M27.13,19.4A8.26,8.26,0,1,0,38.23,23,8.26,8.26,0,0,0,27.13,19.4Zm7.06,14a7.39,7.39,0,1,1,3.26-9.94A7.4,7.4,0,0,1,34.19,33.37Z" transform="translate(-1.82 -1.82)"/><rect class="cls-6" x="34.81" y="37.7" width="3.69" height="1.12" transform="translate(-15.14 18.82) rotate(-26.81)"/><path class="cls-7" d="M38.24,37.43,35.05,39a1,1,0,0,0-.43,1.32l5.44,10.77A2.77,2.77,0,1,0,45,48.63L39.56,37.86A1,1,0,0,0,38.24,37.43Z" transform="translate(-1.82 -1.82)"/><path class="cls-8" d="M49.81,23.71H94.24a8.82,8.82,0,0,1,8.82,8.82V66a0,0,0,0,1,0,0H41a0,0,0,0,1,0,0V32.54A8.82,8.82,0,0,1,49.81,23.71Z"/><path class="cls-5" d="M58.53,18.93H93.27a0,0,0,0,1,0,0V75.74a0,0,0,0,1,0,0H58.53a4.88,4.88,0,0,1-4.88-4.88v-47A4.88,4.88,0,0,1,58.53,18.93Z" transform="translate(118.97 -27.94) rotate(90)"/><path class="cls-9" d="M87.38,82h0a3.55,3.55,0,0,1-3.54-3.54V74.92h-20v3.54A3.55,3.55,0,0,1,60.32,82h0a1.43,1.43,0,0,0-1.45,1.26,1.4,1.4,0,0,0,1.39,1.54H87.44a1.4,1.4,0,0,0,1.37-1.68A1.43,1.43,0,0,0,87.38,82Z" transform="translate(-1.82 -1.82)"/><rect class="cls-2" x="62.03" y="73.1" width="19.99" height="1.77"/><path class="cls-10" d="M41.2,66h62.07a0,0,0,0,1,0,0v2.5a4.63,4.63,0,0,1-4.63,4.63H45.82a4.63,4.63,0,0,1-4.63-4.63V66A0,0,0,0,1,41.2,66Z"/><rect class="cls-2" x="40.99" y="65.97" width="62.07" height="0.42"/><path class="cls-9" d="M75.29,71.56a1.44,1.44,0,1,1-1.44-1.43A1.44,1.44,0,0,1,75.29,71.56Z" transform="translate(-1.82 -1.82)"/><rect class="cls-11" x="11.45" y="51.05" width="38.47" height="25.36" rx="2.12" transform="translate(-39.88 78.58) rotate(-77.92)"/><path class="cls-9" d="M17.75,77a.84.84,0,0,1,.64,1,.83.83,0,0,1-1,.64.84.84,0,0,1-.65-1A.86.86,0,0,1,17.75,77Z" transform="translate(-1.82 -1.82)"/><path class="cls-9" d="M24.65,44.74a.84.84,0,1,1-1,.64A.83.83,0,0,1,24.65,44.74Z" transform="translate(-1.82 -1.82)"/><path class="cls-9" d="M37.08,81.09a.84.84,0,0,1,.64,1,.83.83,0,0,1-1,.64.84.84,0,1,1,.35-1.64Z" transform="translate(-1.82 -1.82)"/><path class="cls-9" d="M44,48.88a.83.83,0,0,1,.65,1,.85.85,0,0,1-1,.65.84.84,0,0,1-.64-1A.83.83,0,0,1,44,48.88Z" transform="translate(-1.82 -1.82)"/><circle class="cls-9" cx="31.57" cy="59.63" r="10.67" transform="translate(-28.69 24.07) rotate(-32.11)"/><path class="cls-12" d="M30,67a7.54,7.54,0,1,1,9-5.79A7.55,7.55,0,0,1,30,67Zm3.08-14.39a7.18,7.18,0,1,0,5.52,8.52A7.19,7.19,0,0,0,33.07,52.61Z" transform="translate(-1.82 -1.82)"/><path class="cls-7" d="M33.68,60.08A2.16,2.16,0,1,1,32,57.51,2.17,2.17,0,0,1,33.68,60.08Z" transform="translate(-1.82 -1.82)"/><path class="cls-12" d="M32.62,59.85a1.08,1.08,0,1,1-.83-1.28A1.07,1.07,0,0,1,32.62,59.85Z" transform="translate(-1.82 -1.82)"/><rect class="cls-13" x="29.98" y="75.59" width="6.3" height="6.3" rx="1.87" transform="translate(-52.62 92.83) rotate(-77.92)"/><path class="cls-13" d="M18.57,69.1l-1.33,6.24.17,0a3.15,3.15,0,0,1,2.42,3.74h0l3.36.72a3,3,0,0,0,3.6-2.33L27,76.4h0a11.31,11.31,0,0,1-7.7-5.86Z" transform="translate(-1.82 -1.82)"/><rect class="cls-13" x="27.15" y="75.77" width="0.72" height="4.91" transform="translate(-56.56 86.92) rotate(-77.92)"/><path class="cls-7" d="M33.55,67a.38.38,0,0,0-.4-.64l-12,5.85,2.22,3.42Z" transform="translate(-1.82 -1.82)"/><path class="cls-12" d="M22.56,74.3l9.13-5.91a.51.51,0,1,0-.56-.86L22,73.44l-.83-1.28a1.21,1.21,0,0,0-.36,1.67l.9,1.39a1.21,1.21,0,0,0,1.68.36Z" transform="translate(-1.82 -1.82)"/><path class="cls-8" d="M15.2,43.53l-2-.53-1.46,1.46.53,2,2,.53,1.46-1.46Zm-2.09,2.09a.89.89,0,0,1,0-1.26.89.89,0,1,1,0,1.26Z" transform="translate(-1.82 -1.82)"/><path class="cls-8" d="M90.81,18.09l-2-.53L87.36,19l.53,2,2,.54,1.47-1.46Zm-2.09,2.1A.9.9,0,1,1,90,18.92a.91.91,0,0,1,0,1.27A.9.9,0,0,1,88.72,20.19Z" transform="translate(-1.82 -1.82)"/><path class="cls-8" d="M143.17,24.83l-2-.54-1.46,1.46.53,2,2,.53,1.47-1.46Zm-2.09,2.09a.9.9,0,1,1,1.27,0A.9.9,0,0,1,141.08,26.92Z" transform="translate(-1.82 -1.82)"/><path class="cls-8" d="M101.41,76.68l-2-.54L98,77.6l.53,2,2,.53L102,78.67Zm-2.09,2.09a.9.9,0,1,1,1.27,0A.9.9,0,0,1,99.32,78.77Z" transform="translate(-1.82 -1.82)"/><path class="cls-8" d="M86,4.23,84,3.7,82.58,5.16l.53,2,2,.54,1.46-1.46Zm-2.1,2.1a.9.9,0,1,1,1.27,0A.9.9,0,0,1,83.94,6.33Z" transform="translate(-1.82 -1.82)"/><path class="cls-8" d="M148.34,63.76l-2-.54-1.47,1.46.54,2,2,.53,1.46-1.46Zm-2.09,2.09a.89.89,0,0,1,1.26-1.27.9.9,0,0,1,0,1.27A.89.89,0,0,1,146.25,65.85Z" transform="translate(-1.82 -1.82)"/><path class="cls-11" d="M57.43,40.42V38.91H56.2a3.46,3.46,0,0,0-.5-1.22l.86-.87-1.07-1.07-.86.87a3.52,3.52,0,0,0-1.23-.51V34.88H51.89v1.23a3.4,3.4,0,0,0-1.22.51l-.87-.87-1.07,1.07.87.87a3.48,3.48,0,0,0-.51,1.22H47.86v1.51h1.23a3.52,3.52,0,0,0,.51,1.23l-.87.86,1.07,1.08.87-.87a3.8,3.8,0,0,0,1.22.51v1.22H53.4V43.23a4,4,0,0,0,1.23-.51l.86.87,1.07-1.08-.86-.86a3.51,3.51,0,0,0,.5-1.23Zm-4.78,1.1a1.86,1.86,0,1,1,1.85-1.85A1.85,1.85,0,0,1,52.65,41.52Z" transform="translate(-1.82 -1.82)"/><path class="cls-8" d="M74.32,14.27V12.76H73.09a3.65,3.65,0,0,0-.5-1.22l.86-.87L72.38,9.6l-.86.87A3.52,3.52,0,0,0,70.29,10V8.73H68.78V10a3.4,3.4,0,0,0-1.22.51l-.87-.87-1.07,1.07.87.87A3.48,3.48,0,0,0,66,12.76H64.75v1.51H66a3.52,3.52,0,0,0,.51,1.23l-.87.86,1.07,1.08.87-.87a3.8,3.8,0,0,0,1.22.51V18.3h1.51V17.08a4,4,0,0,0,1.23-.51l.86.87,1.07-1.08-.86-.86a3.71,3.71,0,0,0,.5-1.23Zm-4.78,1.1a1.86,1.86,0,1,1,1.85-1.85A1.85,1.85,0,0,1,69.54,15.37Z" transform="translate(-1.82 -1.82)"/><path class="cls-8" d="M80.75,18.78V17.71h-.86a2.67,2.67,0,0,0-.36-.87l.61-.61-.76-.76-.61.62a2.42,2.42,0,0,0-.86-.36v-.87H76.84v.87a2.4,2.4,0,0,0-.87.36l-.61-.62-.76.76.62.61a2.47,2.47,0,0,0-.36.87H74v1.07h.87a2.42,2.42,0,0,0,.36.86l-.62.62.76.75L76,20.4a2.58,2.58,0,0,0,.87.36v.87h1.07v-.87a2.62,2.62,0,0,0,.86-.36l.61.61.76-.75-.61-.62a2.62,2.62,0,0,0,.36-.86Zm-3.38.77a1.31,1.31,0,1,1,1.31-1.31A1.31,1.31,0,0,1,77.37,19.55Z" transform="translate(-1.82 -1.82)"/><rect class="cls-14" x="39.83" y="69.03" width="13.94" height="13.94"/><rect class="cls-15" x="45.31" y="69.03" width="0.51" height="3.65"/><rect class="cls-15" x="47.73" y="69.03" width="0.51" height="3.65"/><rect class="cls-15" x="39.83" y="74.33" width="3.77" height="0.51"/><rect class="cls-15" x="39.83" y="76.75" width="3.77" height="0.51"/><polygon class="cls-15" points="49.55 82.98 48.83 82.98 48.18 82.32 48.18 78.83 48.69 78.83 48.69 82.11 49.55 82.98"/><polygon class="cls-15" points="47.65 82.98 46.93 82.98 46.28 82.32 46.28 78.83 46.79 78.83 46.79 82.11 47.65 82.98"/><polygon class="cls-15" points="45.76 82.98 45.03 82.98 44.38 82.32 44.38 78.83 44.9 78.83 44.9 82.11 45.76 82.98"/><polygon class="cls-15" points="53.77 77.66 53.77 78.38 52.84 77.45 49.96 77.44 49.96 76.92 53.05 76.94 53.77 77.66"/><polygon class="cls-15" points="53.77 75.59 53.77 76.11 49.96 76.09 49.96 75.58 53.77 75.59"/><polygon class="cls-15" points="53.77 74.24 53.77 74.76 49.96 74.75 49.96 74.24 53.77 74.24"/><rect class="cls-12" x="43.04" y="72.24" width="7.53" height="7.53"/><path class="cls-16" d="M45.8,82.48a.34.34,0,0,0,.34.34.35.35,0,0,0,.35-.34v-.89H45.8Z" transform="translate(-1.82 -1.82)"/><path class="cls-16" d="M48.28,82.48a.34.34,0,0,0,.34.34.35.35,0,0,0,.35-.34v-.89h-.69Z" transform="translate(-1.82 -1.82)"/><path class="cls-16" d="M50.76,82.48a.35.35,0,0,0,.69,0v-.89h-.69Z" transform="translate(-1.82 -1.82)"/><path class="cls-16" d="M46.14,72.84a.34.34,0,0,0-.34.34v.88h.69v-.88A.35.35,0,0,0,46.14,72.84Z" transform="translate(-1.82 -1.82)"/><path class="cls-16" d="M48.62,72.84a.34.34,0,0,0-.34.34v.88H49v-.88A.35.35,0,0,0,48.62,72.84Z" transform="translate(-1.82 -1.82)"/><path class="cls-16" d="M51.11,72.84a.34.34,0,0,0-.35.34v.88h.69v-.88A.34.34,0,0,0,51.11,72.84Z" transform="translate(-1.82 -1.82)"/><path class="cls-16" d="M43.63,75.35a.34.34,0,0,0,.35.34h.88V75H44A.35.35,0,0,0,43.63,75.35Z" transform="translate(-1.82 -1.82)"/><path class="cls-16" d="M43.63,77.83a.34.34,0,0,0,.35.34h.88v-.69H44A.35.35,0,0,0,43.63,77.83Z" transform="translate(-1.82 -1.82)"/><path class="cls-16" d="M43.63,80.31a.35.35,0,0,0,.35.35h.88V80H44A.34.34,0,0,0,43.63,80.31Z" transform="translate(-1.82 -1.82)"/><path class="cls-16" d="M53.62,75.35a.35.35,0,0,0-.35-.35h-.88v.69h.88A.35.35,0,0,0,53.62,75.35Z" transform="translate(-1.82 -1.82)"/><path class="cls-16" d="M53.27,77.48h-.88v.69h.88a.35.35,0,0,0,.35-.34A.35.35,0,0,0,53.27,77.48Z" transform="translate(-1.82 -1.82)"/><path class="cls-16" d="M53.27,80h-.88v.69h.88a.35.35,0,0,0,.35-.35A.35.35,0,0,0,53.27,80Z" transform="translate(-1.82 -1.82)"/><path class="cls-17" d="M51,77.83a2.34,2.34,0,1,1-2.34-2.34A2.34,2.34,0,0,1,51,77.83Z" transform="translate(-1.82 -1.82)"/><path class="cls-15" d="M43.48,72.26a.58.58,0,0,1-.57.57.57.57,0,0,1-.57-.57.56.56,0,0,1,.57-.57A.57.57,0,0,1,43.48,72.26Z" transform="translate(-1.82 -1.82)"/><path class="cls-15" d="M43.48,83.4a.58.58,0,0,1-.57.57.57.57,0,0,1-.57-.57.56.56,0,0,1,.57-.57A.57.57,0,0,1,43.48,83.4Z" transform="translate(-1.82 -1.82)"/><path class="cls-15" d="M54.91,72.26a.57.57,0,0,1-1.14,0,.57.57,0,0,1,1.14,0Z" transform="translate(-1.82 -1.82)"/><path class="cls-15" d="M54.91,83.4a.57.57,0,1,1-1.14,0,.57.57,0,0,1,1.14,0Z" transform="translate(-1.82 -1.82)"/><path class="cls-18" d="M90,38.85l-.29-.59a.62.62,0,0,0-.83-.29l-.89.44a.62.62,0,0,0-.29.83l22,45.21a.63.63,0,0,0,.84.29l.89-.43a.63.63,0,0,0,.28-.84l-.28-.59a.62.62,0,0,1,.28-.84l2.31-1.12a.62.62,0,0,1,.83.29l.29.59a.63.63,0,0,0,.84.29l.44-.22a.63.63,0,0,0,.29-.84.61.61,0,0,1,.28-.83l.74-.36a.63.63,0,0,1,.84.29.61.61,0,0,0,.83.28l.54-.26a.62.62,0,0,0,.28-.83L119.6,78,123,76.32,102.28,33.77l-3.43,1.67-.65-1.33a.62.62,0,0,0-.83-.29l-.54.26a.63.63,0,0,0-.28.84.62.62,0,0,1-.29.83l-.74.36a.62.62,0,0,1-.83-.28.63.63,0,0,0-.84-.29l-.44.21a.63.63,0,0,0-.29.84l.29.59a.63.63,0,0,1-.29.84l-2.3,1.12A.63.63,0,0,1,90,38.85Z" transform="translate(-1.82 -1.82)"/><rect class="cls-7" x="120.63" y="73.75" width="1.12" height="1.91" transform="translate(105.35 214.56) rotate(-116)"/><rect class="cls-7" x="119.85" y="72.16" width="1.12" height="1.91" transform="translate(105.66 211.57) rotate(-116)"/><rect class="cls-7" x="119.07" y="70.57" width="1.12" height="1.91" transform="translate(105.97 208.58) rotate(-116)"/><rect class="cls-7" x="118.3" y="68.98" width="1.12" height="1.91" transform="translate(106.29 205.59) rotate(-116)"/><rect class="cls-7" x="117.52" y="67.38" width="1.12" height="1.91" transform="translate(106.6 202.6) rotate(-116)"/><rect class="cls-7" x="116.74" y="65.79" width="1.12" height="1.91" transform="translate(106.92 199.61) rotate(-116)"/><rect class="cls-7" x="115.97" y="64.2" width="1.12" height="1.91" transform="translate(107.23 196.62) rotate(-116)"/><rect class="cls-7" x="115.19" y="62.61" width="1.12" height="1.91" transform="translate(107.54 193.63) rotate(-116)"/><rect class="cls-7" x="114.41" y="61.01" width="1.12" height="1.91" transform="translate(107.86 190.64) rotate(-116)"/><rect class="cls-7" x="113.64" y="59.42" width="1.12" height="1.91" transform="translate(108.18 187.65) rotate(-116)"/><rect class="cls-7" x="112.86" y="57.83" width="1.12" height="1.91" transform="translate(108.49 184.67) rotate(-116)"/><rect class="cls-7" x="109.62" y="51.19" width="1.12" height="1.91" transform="translate(109.79 172.2) rotate(-116)"/><rect class="cls-7" x="108.84" y="49.59" width="1.12" height="1.91" transform="translate(110.11 169.21) rotate(-116)"/><rect class="cls-7" x="108.07" y="48" width="1.12" height="1.91" transform="translate(110.42 166.22) rotate(-116)"/><rect class="cls-7" x="107.29" y="46.41" width="1.12" height="1.91" transform="translate(110.74 163.23) rotate(-116)"/><rect class="cls-7" x="111.17" y="54.37" width="1.12" height="1.91" transform="translate(109.17 178.18) rotate(-116)"/><rect class="cls-7" x="110.4" y="52.78" width="1.12" height="1.91" transform="translate(109.48 175.19) rotate(-116)"/><rect class="cls-7" x="106.51" y="44.82" width="1.12" height="1.91" transform="translate(111.05 160.24) rotate(-116)"/><rect class="cls-7" x="105.74" y="43.22" width="1.12" height="1.91" transform="translate(111.37 157.26) rotate(-116)"/><rect class="cls-7" x="104.96" y="41.63" width="1.12" height="1.91" transform="translate(111.68 154.27) rotate(-116)"/><rect class="cls-7" x="104.18" y="40.04" width="1.12" height="1.91" transform="translate(111.99 151.28) rotate(-116)"/><rect class="cls-7" x="103.4" y="38.45" width="1.12" height="1.91" transform="translate(112.31 148.29) rotate(-116)"/><rect class="cls-7" x="102.63" y="36.85" width="1.12" height="1.91" transform="translate(112.62 145.3) rotate(-116)"/><rect class="cls-7" x="101.85" y="35.26" width="1.12" height="1.91" transform="translate(112.93 142.31) rotate(-116)"/><path class="cls-16" d="M108,75.79l.59,1.21a.27.27,0,0,0,.37.13.28.28,0,0,0,.13-.38l-.59-1.21a.29.29,0,0,0-.38-.13A.29.29,0,0,0,108,75.79Z" transform="translate(-1.82 -1.82)"/><path class="cls-16" d="M109.12,75.25l.59,1.21a.28.28,0,0,0,.5-.24L109.62,75a.28.28,0,0,0-.37-.13A.27.27,0,0,0,109.12,75.25Z" transform="translate(-1.82 -1.82)"/><path class="cls-16" d="M110.22,74.71l.59,1.21a.28.28,0,0,0,.37.13.27.27,0,0,0,.13-.37l-.59-1.21a.28.28,0,1,0-.5.24Z" transform="translate(-1.82 -1.82)"/><path class="cls-16" d="M111.32,74.18l.59,1.21a.29.29,0,0,0,.38.13.29.29,0,0,0,.12-.38l-.59-1.21a.27.27,0,0,0-.37-.13A.28.28,0,0,0,111.32,74.18Z" transform="translate(-1.82 -1.82)"/><path class="cls-16" d="M112.42,73.64l.59,1.21a.28.28,0,0,0,.51-.24l-.6-1.22a.27.27,0,0,0-.37-.12A.27.27,0,0,0,112.42,73.64Z" transform="translate(-1.82 -1.82)"/><path class="cls-16" d="M113.52,73.1l.59,1.21a.28.28,0,0,0,.51-.24L114,72.86a.28.28,0,0,0-.51.24Z" transform="translate(-1.82 -1.82)"/><path class="cls-16" d="M109.57,79l.59,1.21a.28.28,0,0,0,.37.13.27.27,0,0,0,.13-.37l-.59-1.21a.28.28,0,1,0-.5.24Z" transform="translate(-1.82 -1.82)"/><path class="cls-16" d="M110.67,78.44l.59,1.21a.29.29,0,0,0,.38.13.29.29,0,0,0,.12-.38l-.59-1.21a.27.27,0,0,0-.37-.13A.28.28,0,0,0,110.67,78.44Z" transform="translate(-1.82 -1.82)"/><path class="cls-16" d="M111.77,77.9l.59,1.21a.28.28,0,0,0,.51-.24l-.59-1.22a.29.29,0,0,0-.38-.12A.28.28,0,0,0,111.77,77.9Z" transform="translate(-1.82 -1.82)"/><path class="cls-16" d="M112.87,77.36l.6,1.21a.27.27,0,0,0,.37.13.27.27,0,0,0,.13-.37l-.59-1.21a.28.28,0,0,0-.51.24Z" transform="translate(-1.82 -1.82)"/><path class="cls-16" d="M114,76.82l.59,1.22a.27.27,0,0,0,.37.12.27.27,0,0,0,.13-.37l-.59-1.21a.28.28,0,0,0-.38-.13A.28.28,0,0,0,114,76.82Z" transform="translate(-1.82 -1.82)"/><path class="cls-16" d="M115.08,76.29l.59,1.21a.28.28,0,1,0,.5-.25L115.58,76a.28.28,0,1,0-.5.25Z" transform="translate(-1.82 -1.82)"/><rect class="cls-12" x="109.99" y="72.37" width="4.21" height="8.3" transform="translate(90.64 208.99) rotate(-116)"/><path class="cls-16" d="M105.07,69.74l.59,1.21a.27.27,0,0,0,.37.13.27.27,0,0,0,.13-.37l-.59-1.21a.28.28,0,0,0-.37-.13A.27.27,0,0,0,105.07,69.74Z" transform="translate(-1.82 -1.82)"/><path class="cls-16" d="M106.17,69.21l.59,1.21a.28.28,0,1,0,.5-.25L106.67,69a.27.27,0,0,0-.37-.13A.28.28,0,0,0,106.17,69.21Z" transform="translate(-1.82 -1.82)"/><path class="cls-16" d="M107.27,68.67l.59,1.21a.28.28,0,0,0,.38.13.28.28,0,0,0,.12-.37l-.59-1.22a.27.27,0,0,0-.37-.12A.27.27,0,0,0,107.27,68.67Z" transform="translate(-1.82 -1.82)"/><path class="cls-16" d="M108.37,68.13l.59,1.21a.28.28,0,0,0,.51-.24l-.6-1.21a.27.27,0,0,0-.37-.13A.27.27,0,0,0,108.37,68.13Z" transform="translate(-1.82 -1.82)"/><path class="cls-16" d="M109.47,67.59l.59,1.22a.29.29,0,0,0,.38.12.28.28,0,0,0,.13-.37L110,67.35a.28.28,0,0,0-.51.24Z" transform="translate(-1.82 -1.82)"/><path class="cls-16" d="M110.58,67.06l.59,1.21a.28.28,0,0,0,.37.13.28.28,0,0,0,.13-.38l-.59-1.21a.29.29,0,0,0-.38-.13A.29.29,0,0,0,110.58,67.06Z" transform="translate(-1.82 -1.82)"/><path class="cls-16" d="M106.62,72.93l.59,1.21a.28.28,0,0,0,.38.13.28.28,0,0,0,.12-.37l-.59-1.22a.27.27,0,0,0-.37-.12A.27.27,0,0,0,106.62,72.93Z" transform="translate(-1.82 -1.82)"/><path class="cls-16" d="M107.72,72.39l.59,1.21a.28.28,0,0,0,.51-.24l-.59-1.21a.28.28,0,0,0-.51.24Z" transform="translate(-1.82 -1.82)"/><path class="cls-16" d="M108.82,71.85l.6,1.22a.27.27,0,0,0,.37.12.27.27,0,0,0,.13-.37l-.59-1.21a.28.28,0,0,0-.51.24Z" transform="translate(-1.82 -1.82)"/><path class="cls-16" d="M109.93,71.32l.59,1.21a.28.28,0,0,0,.37.13.28.28,0,0,0,.13-.38l-.59-1.21a.29.29,0,0,0-.38-.13A.29.29,0,0,0,109.93,71.32Z" transform="translate(-1.82 -1.82)"/><path class="cls-16" d="M111,70.78l.59,1.21a.27.27,0,0,0,.37.13.28.28,0,0,0,.13-.37l-.59-1.22a.28.28,0,0,0-.37-.12A.27.27,0,0,0,111,70.78Z" transform="translate(-1.82 -1.82)"/><path class="cls-16" d="M112.13,70.24l.59,1.21a.28.28,0,0,0,.5-.24L112.63,70a.28.28,0,0,0-.5.24Z" transform="translate(-1.82 -1.82)"/><rect class="cls-12" x="107.04" y="66.33" width="4.21" height="8.3" transform="translate(91.83 197.65) rotate(-116)"/><path class="cls-16" d="M102.12,63.7l.59,1.21a.27.27,0,0,0,.37.13.28.28,0,0,0,.13-.37l-.59-1.22a.28.28,0,0,0-.37-.12A.27.27,0,0,0,102.12,63.7Z" transform="translate(-1.82 -1.82)"/><path class="cls-16" d="M103.22,63.16l.59,1.21a.28.28,0,0,0,.38.13.28.28,0,0,0,.12-.37l-.59-1.21a.27.27,0,0,0-.37-.13A.27.27,0,0,0,103.22,63.16Z" transform="translate(-1.82 -1.82)"/><path class="cls-16" d="M104.32,62.62l.59,1.22a.29.29,0,0,0,.38.12.28.28,0,0,0,.13-.37l-.6-1.21a.27.27,0,0,0-.37-.13A.28.28,0,0,0,104.32,62.62Z" transform="translate(-1.82 -1.82)"/><path class="cls-16" d="M105.42,62.09,106,63.3a.28.28,0,0,0,.51-.25l-.59-1.21a.28.28,0,1,0-.51.25Z" transform="translate(-1.82 -1.82)"/><path class="cls-16" d="M106.53,61.55l.59,1.21a.27.27,0,0,0,.37.13.28.28,0,0,0,.13-.37L107,61.3a.29.29,0,0,0-.38-.12A.27.27,0,0,0,106.53,61.55Z" transform="translate(-1.82 -1.82)"/><path class="cls-16" d="M107.63,61l.59,1.21a.28.28,0,1,0,.5-.24l-.59-1.21a.28.28,0,0,0-.37-.13A.27.27,0,0,0,107.63,61Z" transform="translate(-1.82 -1.82)"/><path class="cls-16" d="M103.67,66.88l.59,1.22a.29.29,0,0,0,.38.12.28.28,0,0,0,.13-.37l-.59-1.21a.28.28,0,0,0-.51.24Z" transform="translate(-1.82 -1.82)"/><path class="cls-16" d="M104.77,66.35l.6,1.21a.28.28,0,0,0,.37.13.28.28,0,0,0,.13-.38l-.59-1.21a.28.28,0,0,0-.51.25Z" transform="translate(-1.82 -1.82)"/><path class="cls-16" d="M105.88,65.81l.59,1.21a.27.27,0,0,0,.37.13.28.28,0,0,0,.13-.37l-.59-1.22a.29.29,0,0,0-.38-.12A.27.27,0,0,0,105.88,65.81Z" transform="translate(-1.82 -1.82)"/><path class="cls-16" d="M107,65.27l.59,1.21a.28.28,0,0,0,.5-.24L107.48,65a.28.28,0,0,0-.37-.13A.27.27,0,0,0,107,65.27Z" transform="translate(-1.82 -1.82)"/><path class="cls-16" d="M108.08,64.73l.59,1.22a.28.28,0,0,0,.37.12.27.27,0,0,0,.13-.37l-.59-1.21a.27.27,0,0,0-.37-.13A.28.28,0,0,0,108.08,64.73Z" transform="translate(-1.82 -1.82)"/><path class="cls-16" d="M109.18,64.2l.59,1.21a.28.28,0,0,0,.38.13.29.29,0,0,0,.12-.38L109.68,64a.28.28,0,0,0-.37-.13A.28.28,0,0,0,109.18,64.2Z" transform="translate(-1.82 -1.82)"/><rect class="cls-12" x="104.09" y="60.28" width="4.21" height="8.3" transform="translate(93.02 186.3) rotate(-116)"/><path class="cls-16" d="M97.2,53.62l.59,1.21a.28.28,0,0,0,.51-.24l-.59-1.21a.28.28,0,0,0-.51.24Z" transform="translate(-1.82 -1.82)"/><path class="cls-16" d="M98.3,53.08l.6,1.22a.27.27,0,0,0,.37.12.27.27,0,0,0,.13-.37l-.59-1.21a.28.28,0,0,0-.51.24Z" transform="translate(-1.82 -1.82)"/><path class="cls-16" d="M99.41,52.55l.59,1.21a.28.28,0,1,0,.5-.25l-.59-1.21a.28.28,0,1,0-.5.25Z" transform="translate(-1.82 -1.82)"/><path class="cls-16" d="M100.51,52l.59,1.21a.27.27,0,0,0,.37.13.28.28,0,0,0,.13-.37L101,51.76a.28.28,0,0,0-.37-.12A.27.27,0,0,0,100.51,52Z" transform="translate(-1.82 -1.82)"/><path class="cls-16" d="M101.61,51.47l.59,1.21a.28.28,0,0,0,.37.13.27.27,0,0,0,.13-.37l-.59-1.21a.28.28,0,0,0-.5.24Z" transform="translate(-1.82 -1.82)"/><path class="cls-16" d="M102.71,50.93l.59,1.22a.29.29,0,0,0,.38.12.27.27,0,0,0,.12-.37l-.59-1.21a.27.27,0,0,0-.37-.13A.28.28,0,0,0,102.71,50.93Z" transform="translate(-1.82 -1.82)"/><path class="cls-16" d="M98.76,56.81,99.35,58a.28.28,0,1,0,.5-.25l-.59-1.21a.28.28,0,1,0-.5.25Z" transform="translate(-1.82 -1.82)"/><path class="cls-16" d="M99.86,56.27l.59,1.21a.27.27,0,0,0,.37.13.28.28,0,0,0,.13-.37L100.36,56a.28.28,0,0,0-.37-.12A.27.27,0,0,0,99.86,56.27Z" transform="translate(-1.82 -1.82)"/><path class="cls-16" d="M101,55.73l.59,1.21a.28.28,0,0,0,.37.13.27.27,0,0,0,.13-.37l-.59-1.21a.28.28,0,0,0-.5.24Z" transform="translate(-1.82 -1.82)"/><path class="cls-16" d="M102.06,55.19l.59,1.22a.29.29,0,0,0,.38.12.28.28,0,0,0,.13-.37l-.6-1.21a.27.27,0,0,0-.37-.13A.28.28,0,0,0,102.06,55.19Z" transform="translate(-1.82 -1.82)"/><path class="cls-16" d="M103.16,54.66l.59,1.21a.28.28,0,0,0,.51-.25l-.59-1.21a.28.28,0,0,0-.51.25Z" transform="translate(-1.82 -1.82)"/><path class="cls-16" d="M104.26,54.12l.6,1.21a.27.27,0,0,0,.37.13.28.28,0,0,0,.13-.37l-.59-1.22a.29.29,0,0,0-.38-.12A.28.28,0,0,0,104.26,54.12Z" transform="translate(-1.82 -1.82)"/><rect class="cls-12" x="99.18" y="50.2" width="4.21" height="8.3" transform="translate(95.01 167.39) rotate(-116)"/><path class="cls-16" d="M94.25,47.58l.6,1.21a.28.28,0,0,0,.37.13.28.28,0,0,0,.13-.38l-.59-1.21a.28.28,0,0,0-.51.25Z" transform="translate(-1.82 -1.82)"/><path class="cls-16" d="M95.36,47,96,48.25a.27.27,0,0,0,.37.13.28.28,0,0,0,.13-.37l-.59-1.22a.28.28,0,0,0-.37-.12A.27.27,0,0,0,95.36,47Z" transform="translate(-1.82 -1.82)"/><path class="cls-16" d="M96.46,46.5l.59,1.21a.28.28,0,1,0,.5-.24L97,46.26a.28.28,0,0,0-.5.24Z" transform="translate(-1.82 -1.82)"/><path class="cls-16" d="M97.56,46l.59,1.22a.28.28,0,0,0,.37.12.27.27,0,0,0,.13-.37l-.59-1.21a.27.27,0,0,0-.37-.13A.28.28,0,0,0,97.56,46Z" transform="translate(-1.82 -1.82)"/><path class="cls-16" d="M98.66,45.43l.59,1.21a.29.29,0,0,0,.38.13.29.29,0,0,0,.12-.38l-.59-1.21a.28.28,0,0,0-.37-.13A.28.28,0,0,0,98.66,45.43Z" transform="translate(-1.82 -1.82)"/><path class="cls-16" d="M99.76,44.89l.59,1.21a.28.28,0,0,0,.51-.24l-.59-1.22a.29.29,0,0,0-.38-.12A.28.28,0,0,0,99.76,44.89Z" transform="translate(-1.82 -1.82)"/><path class="cls-16" d="M95.81,50.76,96.4,52a.28.28,0,1,0,.5-.24l-.59-1.21a.28.28,0,0,0-.5.24Z" transform="translate(-1.82 -1.82)"/><path class="cls-16" d="M96.91,50.22l.59,1.22a.28.28,0,0,0,.37.12.27.27,0,0,0,.13-.37L97.41,50a.27.27,0,0,0-.37-.13A.28.28,0,0,0,96.91,50.22Z" transform="translate(-1.82 -1.82)"/><path class="cls-16" d="M98,49.69l.59,1.21A.29.29,0,0,0,99,51a.28.28,0,0,0,.12-.38l-.59-1.21a.28.28,0,0,0-.37-.13A.28.28,0,0,0,98,49.69Z" transform="translate(-1.82 -1.82)"/><path class="cls-16" d="M99.11,49.15l.59,1.21a.28.28,0,0,0,.51-.24l-.59-1.22a.29.29,0,0,0-.38-.12A.28.28,0,0,0,99.11,49.15Z" transform="translate(-1.82 -1.82)"/><path class="cls-16" d="M100.21,48.61l.6,1.21a.27.27,0,0,0,.37.13.27.27,0,0,0,.13-.37l-.59-1.21a.28.28,0,0,0-.51.24Z" transform="translate(-1.82 -1.82)"/><path class="cls-16" d="M101.32,48.08l.59,1.21a.28.28,0,1,0,.5-.25l-.59-1.21a.28.28,0,0,0-.37-.13A.28.28,0,0,0,101.32,48.08Z" transform="translate(-1.82 -1.82)"/><rect class="cls-12" x="96.23" y="44.16" width="4.21" height="8.3" transform="translate(96.2 156.04) rotate(-116)"/><path class="cls-16" d="M91.31,41.53l.59,1.21a.27.27,0,0,0,.37.13.27.27,0,0,0,.13-.37l-.59-1.21a.28.28,0,0,0-.37-.13A.27.27,0,0,0,91.31,41.53Z" transform="translate(-1.82 -1.82)"/><path class="cls-16" d="M92.41,41,93,42.21a.28.28,0,0,0,.37.12A.27.27,0,0,0,93.5,42l-.59-1.21a.27.27,0,0,0-.37-.13A.28.28,0,0,0,92.41,41Z" transform="translate(-1.82 -1.82)"/><path class="cls-16" d="M93.51,40.46l.59,1.21a.28.28,0,1,0,.5-.25L94,40.21a.28.28,0,1,0-.5.25Z" transform="translate(-1.82 -1.82)"/><path class="cls-16" d="M94.61,39.92l.59,1.21a.28.28,0,0,0,.38.13.28.28,0,0,0,.12-.37l-.59-1.22a.27.27,0,0,0-.37-.12A.27.27,0,0,0,94.61,39.92Z" transform="translate(-1.82 -1.82)"/><path class="cls-16" d="M95.71,39.38l.59,1.21a.28.28,0,0,0,.51-.24l-.59-1.21a.28.28,0,0,0-.51.24Z" transform="translate(-1.82 -1.82)"/><path class="cls-16" d="M96.81,38.85l.6,1.21a.28.28,0,0,0,.37.13.28.28,0,0,0,.13-.38l-.59-1.21a.28.28,0,0,0-.38-.13A.29.29,0,0,0,96.81,38.85Z" transform="translate(-1.82 -1.82)"/><path class="cls-16" d="M92.86,44.72l.59,1.21a.28.28,0,1,0,.5-.25l-.59-1.21a.28.28,0,1,0-.5.25Z" transform="translate(-1.82 -1.82)"/><path class="cls-16" d="M94,44.18l.59,1.21a.28.28,0,0,0,.38.13.28.28,0,0,0,.12-.37l-.59-1.22a.27.27,0,0,0-.37-.12A.27.27,0,0,0,94,44.18Z" transform="translate(-1.82 -1.82)"/><path class="cls-16" d="M95.06,43.64l.59,1.21a.28.28,0,0,0,.51-.24l-.59-1.21a.28.28,0,0,0-.51.24Z" transform="translate(-1.82 -1.82)"/><path class="cls-16" d="M96.16,43.1l.6,1.22a.28.28,0,0,0,.37.13.28.28,0,0,0,.13-.38l-.59-1.21a.28.28,0,0,0-.51.24Z" transform="translate(-1.82 -1.82)"/><path class="cls-16" d="M97.27,42.57l.59,1.21a.27.27,0,0,0,.37.13.28.28,0,0,0,.13-.38l-.59-1.21a.28.28,0,1,0-.5.25Z" transform="translate(-1.82 -1.82)"/><path class="cls-16" d="M98.37,42,99,43.24a.28.28,0,1,0,.5-.24l-.59-1.21a.27.27,0,0,0-.37-.13A.27.27,0,0,0,98.37,42Z" transform="translate(-1.82 -1.82)"/><rect class="cls-12" x="93.28" y="38.11" width="4.21" height="8.3" transform="translate(97.39 144.7) rotate(-116)"/><path class="cls-15" d="M100.18,37l19.32,39.6a.3.3,0,0,1-.14.4h0a.29.29,0,0,1-.39-.14L99.65,37.27a.31.31,0,0,1,.13-.4h0A.3.3,0,0,1,100.18,37Z" transform="translate(-1.82 -1.82)"/><rect class="cls-1" x="98.57" y="72.08" width="1.05" height="19.37" transform="translate(179.04 -19.16) rotate(90)"/><rect class="cls-2" x="89.19" y="81.4" width="1.05" height="0.73" transform="translate(169.66 -9.77) rotate(90)"/><polygon class="cls-2" points="106.97 80.47 106.97 79.42 108.54 79.15 108.54 80.73 106.97 80.47"/><polygon class="cls-1" points="110.66 79.42 110.66 80.47 108.54 80.73 108.54 79.15 110.66 79.42"/><path class="cls-3" d="M87.73,84V79.58a.84.84,0,0,1,.84-.85h0a.84.84,0,0,1,.84.85V84a.84.84,0,0,1-.84.84h0A.84.84,0,0,1,87.73,84Z" transform="translate(-1.82 -1.82)"/><path class="cls-3" d="M80.44,76.56H84.6a0,0,0,0,1,0,0v9.06A1.35,1.35,0,0,1,83.25,87H81.79a1.35,1.35,0,0,1-1.35-1.35V76.56A0,0,0,0,1,80.44,76.56Z" transform="translate(162.46 -2.58) rotate(90)"/><rect class="cls-4" x="85.28" y="81.4" width="4.17" height="0.73" transform="translate(167.3 -7.42) rotate(90)"/><path class="cls-4" d="M78.86,80.92h0a.27.27,0,0,1,.26-.27H85.7a.27.27,0,0,1,.26.27h0a.26.26,0,0,1-.26.26H79.12A.26.26,0,0,1,78.86,80.92Z" transform="translate(-1.82 -1.82)"/><path class="cls-4" d="M78.86,82.62h0a.27.27,0,0,1,.26-.27H85.7a.27.27,0,0,1,.26.27h0a.26.26,0,0,1-.26.26H79.12A.26.26,0,0,1,78.86,82.62Z" transform="translate(-1.82 -1.82)"/><path class="cls-9" d="M140,52.33v29.2a1.63,1.63,0,0,1-1.63,1.63H115.64A1.63,1.63,0,0,1,114,81.53V52.33a1.64,1.64,0,0,1,1.63-1.63h22.77A1.63,1.63,0,0,1,140,52.33Z" transform="translate(-1.82 -1.82)"/><path class="cls-13" d="M140,52.33H114a1.64,1.64,0,0,1,1.63-1.63h22.77A1.63,1.63,0,0,1,140,52.33Z" transform="translate(-1.82 -1.82)"/><path class="cls-13" d="M116.58,53.28a.63.63,0,0,1-.63.64.64.64,0,1,1,0-1.27A.63.63,0,0,1,116.58,53.28Z" transform="translate(-1.82 -1.82)"/><path class="cls-13" d="M138.73,53.28a.63.63,0,0,1-.63.64.64.64,0,1,1,0-1.27A.63.63,0,0,1,138.73,53.28Z" transform="translate(-1.82 -1.82)"/><path class="cls-13" d="M116.58,80.57a.64.64,0,0,1-.63.64.64.64,0,0,1-.64-.64.64.64,0,0,1,.64-.63A.63.63,0,0,1,116.58,80.57Z" transform="translate(-1.82 -1.82)"/><path class="cls-13" d="M138.73,80.57a.64.64,0,0,1-.63.64.64.64,0,0,1-.64-.64.64.64,0,0,1,.64-.63A.63.63,0,0,1,138.73,80.57Z" transform="translate(-1.82 -1.82)"/><path class="cls-10" d="M135.07,68.52a9.44,9.44,0,0,0,1.47-5.64A9.53,9.53,0,1,0,119,68.52h0a2.05,2.05,0,0,0-2,2v7.36a2.05,2.05,0,0,0,2,2h16.1a2,2,0,0,0,2.05-2V70.57a2,2,0,0,0-2.05-2Z" transform="translate(-1.82 -1.82)"/><path class="cls-14" d="M119,79.19a1.27,1.27,0,0,1-1.26-1.26V70.57A1.26,1.26,0,0,1,119,69.31h1.44l-.77-1.21A8.75,8.75,0,0,1,127,54.67c.2,0,.41,0,.61,0a8.75,8.75,0,0,1,6.78,13.41l-.77,1.21h1.43a1.26,1.26,0,0,1,1.27,1.26v7.36a1.27,1.27,0,0,1-1.27,1.26Z" transform="translate(-1.82 -1.82)"/><rect class="cls-7" x="119.94" y="57.75" width="10.52" height="7.35"/><rect class="cls-7" x="119.94" y="62.31" width="10.52" height="0.7"/><rect class="cls-7" x="121.63" y="63.63" width="7.15" height="0.7"/><rect class="cls-19" x="117.57" y="73.93" width="4.78" height="0.7"/><rect class="cls-10" x="117.51" y="69.68" width="6.44" height="3.41"/><rect class="cls-9" x="118.45" y="71.69" width="1.57" height="1.39"/><rect class="cls-9" x="121.44" y="71.69" width="1.57" height="1.39"/><rect class="cls-19" x="117.57" y="75.07" width="4.78" height="0.7"/><path class="cls-10" d="M133.24,73a1.45,1.45,0,0,1-2.89,0,1.45,1.45,0,1,1,2.89,0Z" transform="translate(-1.82 -1.82)"/><text class="cls-20" transform="translate(121.5 61.77)">HDD</text><rect class="cls-14" x="136.12" y="46.45" width="13.94" height="13.94"/><rect class="cls-12" x="139.33" y="49.66" width="7.53" height="7.53"/><path class="cls-16" d="M139.92,52.76a.35.35,0,0,0,.35.35h.88v-.69h-.88A.35.35,0,0,0,139.92,52.76Z" transform="translate(-1.82 -1.82)"/><path class="cls-16" d="M139.92,55.25a.35.35,0,0,0,.35.34h.88V54.9h-.88A.35.35,0,0,0,139.92,55.25Z" transform="translate(-1.82 -1.82)"/><path class="cls-16" d="M139.92,57.73a.35.35,0,0,0,.35.34h.88v-.69h-.88A.35.35,0,0,0,139.92,57.73Z" transform="translate(-1.82 -1.82)"/><path class="cls-16" d="M149.91,52.76a.35.35,0,0,0-.35-.34h-.88v.69h.88A.35.35,0,0,0,149.91,52.76Z" transform="translate(-1.82 -1.82)"/><path class="cls-16" d="M149.56,54.9h-.88v.69h.88a.35.35,0,0,0,.35-.34A.35.35,0,0,0,149.56,54.9Z" transform="translate(-1.82 -1.82)"/><path class="cls-16" d="M149.56,57.38h-.88v.69h.88a.35.35,0,0,0,.35-.34A.35.35,0,0,0,149.56,57.38Z" transform="translate(-1.82 -1.82)"/><rect class="cls-15" x="141.6" y="46.45" width="0.51" height="3.65"/><rect class="cls-15" x="144.02" y="46.45" width="0.51" height="3.65"/><rect class="cls-15" x="136.12" y="51.75" width="3.77" height="0.51"/><rect class="cls-15" x="136.12" y="54.17" width="3.77" height="0.51"/><polygon class="cls-15" points="145.85 60.4 145.13 60.4 144.47 59.74 144.47 56.25 144.99 56.25 144.99 59.53 145.85 60.4"/><polygon class="cls-15" points="143.95 60.4 143.22 60.4 142.57 59.74 142.57 56.25 143.09 56.25 143.09 59.53 143.95 60.4"/><polygon class="cls-15" points="142.05 60.4 141.33 60.4 140.68 59.74 140.68 56.25 141.19 56.25 141.19 59.53 142.05 60.4"/><polygon class="cls-15" points="150.06 55.08 150.06 55.8 149.13 54.87 146.25 54.85 146.25 54.34 149.34 54.35 150.06 55.08"/><polygon class="cls-15" points="150.06 53.01 150.06 53.52 146.25 53.51 146.25 53 150.06 53.01"/><polygon class="cls-15" points="150.06 51.66 150.06 52.18 146.25 52.17 146.25 51.66 150.06 51.66"/><path class="cls-16" d="M142.09,59.89a.34.34,0,0,0,.34.35.35.35,0,0,0,.35-.35V59h-.69Z" transform="translate(-1.82 -1.82)"/><path class="cls-16" d="M144.57,59.89a.35.35,0,0,0,.35.35.34.34,0,0,0,.34-.35V59h-.69Z" transform="translate(-1.82 -1.82)"/><path class="cls-16" d="M147.05,59.89a.35.35,0,0,0,.35.35.34.34,0,0,0,.34-.35V59h-.69Z" transform="translate(-1.82 -1.82)"/><path class="cls-16" d="M142.43,50.25a.35.35,0,0,0-.34.35v.88h.69V50.6A.35.35,0,0,0,142.43,50.25Z" transform="translate(-1.82 -1.82)"/><path class="cls-16" d="M144.92,50.25a.35.35,0,0,0-.35.35v.88h.69V50.6A.35.35,0,0,0,144.92,50.25Z" transform="translate(-1.82 -1.82)"/><path class="cls-16" d="M147.4,50.25a.35.35,0,0,0-.35.35v.88h.69V50.6A.35.35,0,0,0,147.4,50.25Z" transform="translate(-1.82 -1.82)"/><circle class="cls-17" cx="143.09" cy="53.42" r="2.34"/><path class="cls-15" d="M139.77,49.68a.58.58,0,0,1-.57.57.57.57,0,0,1-.57-.57.56.56,0,0,1,.57-.57A.57.57,0,0,1,139.77,49.68Z" transform="translate(-1.82 -1.82)"/><path class="cls-15" d="M139.77,60.82a.58.58,0,0,1-.57.57.57.57,0,0,1-.57-.57.56.56,0,0,1,.57-.57A.57.57,0,0,1,139.77,60.82Z" transform="translate(-1.82 -1.82)"/><path class="cls-15" d="M151.2,49.68a.57.57,0,0,1-.57.57.58.58,0,0,1-.57-.57.57.57,0,0,1,.57-.57A.56.56,0,0,1,151.2,49.68Z" transform="translate(-1.82 -1.82)"/><path class="cls-15" d="M151.2,60.82a.57.57,0,0,1-.57.57.58.58,0,0,1-.57-.57.57.57,0,0,1,.57-.57A.56.56,0,0,1,151.2,60.82Z" transform="translate(-1.82 -1.82)"/><rect class="cls-12" x="103.26" y="8.54" width="7.53" height="7.53"/><path class="cls-16" d="M106,18.78a.34.34,0,0,0,.34.34.35.35,0,0,0,.35-.34V17.9H106Z" transform="translate(-1.82 -1.82)"/><path class="cls-16" d="M108.5,18.78a.35.35,0,0,0,.69,0V17.9h-.69Z" transform="translate(-1.82 -1.82)"/><path class="cls-16" d="M111,18.78a.35.35,0,0,0,.35.34.34.34,0,0,0,.34-.34V17.9H111Z" transform="translate(-1.82 -1.82)"/><path class="cls-16" d="M106.36,9.14a.34.34,0,0,0-.34.34v.89h.69V9.48A.35.35,0,0,0,106.36,9.14Z" transform="translate(-1.82 -1.82)"/><path class="cls-16" d="M108.84,9.14a.34.34,0,0,0-.34.34v.89h.69V9.48A.34.34,0,0,0,108.84,9.14Z" transform="translate(-1.82 -1.82)"/><path class="cls-16" d="M111.33,9.14a.35.35,0,0,0-.35.34v.89h.69V9.48A.34.34,0,0,0,111.33,9.14Z" transform="translate(-1.82 -1.82)"/><path class="cls-16" d="M103.85,11.65a.35.35,0,0,0,.35.34h.88V11.3h-.88A.35.35,0,0,0,103.85,11.65Z" transform="translate(-1.82 -1.82)"/><path class="cls-16" d="M103.85,14.13a.35.35,0,0,0,.35.35h.88v-.69h-.88A.35.35,0,0,0,103.85,14.13Z" transform="translate(-1.82 -1.82)"/><path class="cls-16" d="M103.85,16.61a.35.35,0,0,0,.35.35h.88v-.69h-.88A.35.35,0,0,0,103.85,16.61Z" transform="translate(-1.82 -1.82)"/><path class="cls-16" d="M113.84,11.65a.35.35,0,0,0-.35-.35h-.88V12h.88A.35.35,0,0,0,113.84,11.65Z" transform="translate(-1.82 -1.82)"/><path class="cls-16" d="M113.49,13.79h-.88v.69h.88a.35.35,0,0,0,.35-.35A.35.35,0,0,0,113.49,13.79Z" transform="translate(-1.82 -1.82)"/><path class="cls-16" d="M113.49,16.27h-.88V17h.88a.35.35,0,0,0,.35-.35A.35.35,0,0,0,113.49,16.27Z" transform="translate(-1.82 -1.82)"/><path class="cls-17" d="M111.18,14.13a2.34,2.34,0,1,1-2.34-2.34A2.34,2.34,0,0,1,111.18,14.13Z" transform="translate(-1.82 -1.82)"/><rect class="cls-12" x="1.34" y="49.83" width="7.53" height="7.53"/><path class="cls-16" d="M4.1,60.07a.35.35,0,0,0,.35.34.34.34,0,0,0,.34-.34v-.89H4.1Z" transform="translate(-1.82 -1.82)"/><path class="cls-16" d="M6.58,60.07a.35.35,0,0,0,.35.34.34.34,0,0,0,.34-.34v-.89H6.58Z" transform="translate(-1.82 -1.82)"/><path class="cls-16" d="M9.07,60.07a.34.34,0,0,0,.34.34.35.35,0,0,0,.35-.34v-.89H9.07Z" transform="translate(-1.82 -1.82)"/><path class="cls-16" d="M4.45,50.42a.35.35,0,0,0-.35.35v.88h.69v-.88A.35.35,0,0,0,4.45,50.42Z" transform="translate(-1.82 -1.82)"/><path class="cls-16" d="M6.93,50.42a.35.35,0,0,0-.35.35v.88h.69v-.88A.35.35,0,0,0,6.93,50.42Z" transform="translate(-1.82 -1.82)"/><path class="cls-16" d="M9.41,50.42a.35.35,0,0,0-.34.35v.88h.69v-.88A.35.35,0,0,0,9.41,50.42Z" transform="translate(-1.82 -1.82)"/><path class="cls-16" d="M1.94,52.94a.34.34,0,0,0,.34.34h.88v-.69H2.28A.34.34,0,0,0,1.94,52.94Z" transform="translate(-1.82 -1.82)"/><path class="cls-16" d="M1.94,55.42a.34.34,0,0,0,.34.34h.88v-.69H2.28A.35.35,0,0,0,1.94,55.42Z" transform="translate(-1.82 -1.82)"/><path class="cls-16" d="M1.94,57.9a.34.34,0,0,0,.34.34h.88v-.69H2.28A.35.35,0,0,0,1.94,57.9Z" transform="translate(-1.82 -1.82)"/><path class="cls-16" d="M11.92,52.94a.34.34,0,0,0-.34-.35h-.89v.69h.89A.34.34,0,0,0,11.92,52.94Z" transform="translate(-1.82 -1.82)"/><path class="cls-16" d="M11.58,55.07h-.89v.69h.89a.34.34,0,0,0,.34-.34A.35.35,0,0,0,11.58,55.07Z" transform="translate(-1.82 -1.82)"/><path class="cls-16" d="M11.58,57.55h-.89v.69h.89a.34.34,0,0,0,.34-.34A.35.35,0,0,0,11.58,57.55Z" transform="translate(-1.82 -1.82)"/><path class="cls-17" d="M9.27,55.42a2.34,2.34,0,1,1-2.34-2.34A2.34,2.34,0,0,1,9.27,55.42Z" transform="translate(-1.82 -1.82)"/><rect class="cls-12" x="125.69" y="34.81" width="7.53" height="7.53"/><path class="cls-16" d="M128.45,45.05a.35.35,0,0,0,.35.35.35.35,0,0,0,.34-.35v-.88h-.69Z" transform="translate(-1.82 -1.82)"/><path class="cls-16" d="M130.93,45.05a.35.35,0,0,0,.35.35.35.35,0,0,0,.34-.35v-.88h-.69Z" transform="translate(-1.82 -1.82)"/><path class="cls-16" d="M133.42,45.05a.35.35,0,0,0,.34.35.35.35,0,0,0,.35-.35v-.88h-.69Z" transform="translate(-1.82 -1.82)"/><path class="cls-16" d="M128.8,35.41a.35.35,0,0,0-.35.34v.89h.69v-.89A.34.34,0,0,0,128.8,35.41Z" transform="translate(-1.82 -1.82)"/><path class="cls-16" d="M131.28,35.41a.35.35,0,0,0-.35.34v.89h.69v-.89A.34.34,0,0,0,131.28,35.41Z" transform="translate(-1.82 -1.82)"/><path class="cls-16" d="M133.76,35.41a.34.34,0,0,0-.34.34v.89h.69v-.89A.35.35,0,0,0,133.76,35.41Z" transform="translate(-1.82 -1.82)"/><path class="cls-16" d="M126.29,37.92a.35.35,0,0,0,.34.35h.88v-.69h-.88A.34.34,0,0,0,126.29,37.92Z" transform="translate(-1.82 -1.82)"/><path class="cls-16" d="M126.29,40.4a.35.35,0,0,0,.34.35h.88v-.69h-.88A.34.34,0,0,0,126.29,40.4Z" transform="translate(-1.82 -1.82)"/><path class="cls-16" d="M126.29,42.88a.34.34,0,0,0,.34.35h.88v-.69h-.88A.34.34,0,0,0,126.29,42.88Z" transform="translate(-1.82 -1.82)"/><path class="cls-16" d="M136.27,37.92a.34.34,0,0,0-.34-.34H135v.69h.89A.35.35,0,0,0,136.27,37.92Z" transform="translate(-1.82 -1.82)"/><path class="cls-16" d="M135.93,40.06H135v.69h.89a.35.35,0,0,0,.34-.35A.34.34,0,0,0,135.93,40.06Z" transform="translate(-1.82 -1.82)"/><path class="cls-16" d="M135.93,42.54H135v.69h.89a.35.35,0,0,0,0-.69Z" transform="translate(-1.82 -1.82)"/><path class="cls-17" d="M133.62,40.4a2.34,2.34,0,1,1-2.34-2.34A2.34,2.34,0,0,1,133.62,40.4Z" transform="translate(-1.82 -1.82)"/><path class="cls-10" d="M9.36,67.16a8.87,8.87,0,1,0,10.1,7.44A8.87,8.87,0,0,0,9.36,67.16ZM10.86,77a1.09,1.09,0,1,1,.92-1.24A1.1,1.1,0,0,1,10.86,77Z" transform="translate(-1.82 -1.82)"/><path class="cls-9" d="M10,75.06a1.1,1.1,0,0,0-.43.87H1.82a1.77,1.77,0,0,1,0-.23v-.16a.22.22,0,0,1,0-.08.91.91,0,0,1,0-.17v0c0-.07,0-.14,0-.21s0-.14,0-.22.07-.43.11-.64,0-.12,0-.18a2.29,2.29,0,0,1,.07-.28.75.75,0,0,1,0-.16c.07-.25.15-.49.24-.73l.06-.16,0,0,.07-.16c0-.11.09-.21.14-.32s.12-.25.19-.38l0-.06c0-.07.07-.13.1-.19v0l.1-.16.1-.17L3.3,71c.09-.14.19-.27.29-.4l.13-.18.13-.16L4,70.14l.1-.12.33-.34.16-.17h0l.16-.15a7.22,7.22,0,0,1,.6-.5Z" transform="translate(-1.82 -1.82)"/><path class="cls-9" d="M19.46,74.6h0c0,.1,0,.2,0,.3l0,.22s0,.1,0,.15,0,.18,0,.27v.26a1,1,0,0,1,0,.25v.3c0,.17,0,.33,0,.5s0,.11,0,.17l0,.21,0,.18s0,0,0,.07,0,.14,0,.21a1.16,1.16,0,0,1,0,.18,4.21,4.21,0,0,1-.12.48c0,.08-.05.16-.07.24s-.05.13-.07.2a.88.88,0,0,1-.05.15l-.08.21-.09.23-.07.15a.89.89,0,0,1-.08.17v0a1.74,1.74,0,0,1-.1.19l-.09.19-.09.16a7.31,7.31,0,0,1-.41.66l-.1.15a8,8,0,0,1-.51.64l-.09.11-.31.33-.09.09-.14.13h0l-.12.11-.11.1-.18.16-5-6a1.07,1.07,0,0,0,.39-1,1.29,1.29,0,0,0-.08-.28l7.12-3.11a2,2,0,0,1,.11.26,7,7,0,0,1,.28.81,2.5,2.5,0,0,1,.07.26,3.59,3.59,0,0,1,.08.35,1.16,1.16,0,0,1,0,.18.36.36,0,0,1,0,.11A2.17,2.17,0,0,1,19.46,74.6Z" transform="translate(-1.82 -1.82)"/><path class="cls-12" d="M10.34,73.59a2.37,2.37,0,1,0,2.69,2A2.36,2.36,0,0,0,10.34,73.59ZM10.86,77a1.09,1.09,0,1,1,.92-1.24A1.1,1.1,0,0,1,10.86,77Z" transform="translate(-1.82 -1.82)"/><path class="cls-11" d="M10.41,74.07a1.88,1.88,0,1,0,2.15,1.58A1.89,1.89,0,0,0,10.41,74.07ZM10.86,77a1.09,1.09,0,1,1,.92-1.24A1.1,1.1,0,0,1,10.86,77Z" transform="translate(-1.82 -1.82)"/><path class="cls-8" d="M132.32,13.49l-2-.54-1.46,1.47.54,2,2,.53,1.46-1.46Zm-2.1,2.09a.89.89,0,1,1,1.27,0A.9.9,0,0,1,130.22,15.58Z" transform="translate(-1.82 -1.82)"/><path class="cls-8" d="M130.43,24.24V22.73H129.2a3.79,3.79,0,0,0-.5-1.23l.86-.86-1.07-1.07-.86.86a3.79,3.79,0,0,0-1.23-.5V18.7h-1.51v1.23a3.57,3.57,0,0,0-1.22.5l-.87-.86-1.07,1.07.87.86a3.6,3.6,0,0,0-.51,1.23h-1.23v1.51h1.23a3.4,3.4,0,0,0,.51,1.22l-.87.87,1.07,1.07.87-.87a3.4,3.4,0,0,0,1.22.51v1.23h1.51V27a3.6,3.6,0,0,0,1.23-.51l.86.87,1.07-1.07-.86-.87a3.57,3.57,0,0,0,.5-1.22Zm-4.78,1.1a1.86,1.86,0,1,1,1.85-1.86A1.86,1.86,0,0,1,125.65,25.34Z" transform="translate(-1.82 -1.82)"/><path class="cls-8" d="M136.86,28.75V27.68H136a2.58,2.58,0,0,0-.36-.87l.61-.61-.76-.76-.61.62a2.42,2.42,0,0,0-.86-.36v-.87H133v.87a2.4,2.4,0,0,0-.87.36l-.61-.62-.76.76.62.61a2.6,2.6,0,0,0-.37.87h-.86v1.07H131a2.64,2.64,0,0,0,.37.86l-.62.62.76.75.61-.61a2.58,2.58,0,0,0,.87.36v.87H134v-.87a2.62,2.62,0,0,0,.86-.36l.61.61.76-.75-.61-.62a2.62,2.62,0,0,0,.36-.86Zm-3.38.77a1.31,1.31,0,1,1,1.31-1.31A1.31,1.31,0,0,1,133.48,29.52Z" transform="translate(-1.82 -1.82)"/><line class="cls-21" x1="72.45" y1="32.62" x2="71.97" y2="33.08"/><line class="cls-21" x1="72.45" y1="32.62" x2="71.97" y2="33.08"/><path class="cls-22" d="M85.31,39.29l-1.56-1.56V35.85l-1-1H81.09v-.61l-1.48-1.48H77.34l-.72-.71H74.78l-.93.93v-.91l-2,0-.07,2.59-3.06,1.23-2.06-1.61-2.94,2.59,1.83,1.87-1.39,2.81-2.49.22-.07,3.6,2.63.15,1,2.81-1.79,2.16,2.95,2.45,1.73-1.64,3.38,1.11v2.25h2.29a.54.54,0,0,0-.54-.54H72.23V52l-4-1.39-1.76,1.67-2.2-1.91,1.58-2L64.58,45l-2.47-.09.08-2.66,2.35-.17,1.72-3.51-1.8-1.72,2.25-1.92,2,1.51L72.29,35l0-2.37h1v.89h0v1h0a.64.64,0,0,0-.38.69.65.65,0,1,0,.9-.69h0v-.8l1.09-1.09h1.52l1.49,1.49a.72.72,0,0,0-.08.32.63.63,0,0,0,.65.64.64.64,0,0,0,.62-.62.63.63,0,0,0-.64-.65.7.7,0,0,0-.25,0l-.5-.49h1.68l1.11,1.1v2.65l.7.7a.51.51,0,0,0,0,.22.63.63,0,0,0,.66.63.64.64,0,0,0,0-1.27l-.21,0L81,36.89V35.34h1.38l.75.75V39l-.94.95H80.62L79,38.31V37l-1.65-1.65h-1a.63.63,0,0,0-.57-.34.64.64,0,0,0,0,1.27.63.63,0,0,0,.62-.39h.78l1.36,1.36v1.42l1.9,1.9h2.07l1.27-1.27v-.76l1,1v1.93l-1.09,1.09-.8-.79H81L79.7,43H76.49l-.56.57a.51.51,0,0,0-.17,0,.64.64,0,1,0,.64.7,1.34,1.34,0,0,0,0-.2l.52-.52H80l1.21-1.21h1.45l2.13,2.13v1.8l-2.54,2.54a.58.58,0,0,0-.29,0,.64.64,0,1,0,.65.52h0l1-1v2.17L82.6,51.45H80.54a.62.62,0,0,0-.59-.4.63.63,0,0,0-.64.65.65.65,0,0,0,.64.62.62.62,0,0,0,.57-.34h.74l-1.14,1.14H78.36l.37-.38v-2l1.36-1.35V48.09h1.15l1.27-1.27V45.37a.63.63,0,0,0,.3-.54.64.64,0,0,0-1.28,0,.63.63,0,0,0,.32.55v1.15L81,47.4h-.92v-1L78.8,45.15s0-.08,0-.12a.64.64,0,1,0-1.27.06.65.65,0,0,0,.66.56h.06l1.09,1.1v2.42L76.82,51.7h-.65a.64.64,0,0,0-1.18.4.64.64,0,0,0,.55.56.66.66,0,0,0,.61-.27h.93l1.13-1.13V52.5l-1.6,1.61-1.18,0a.57.57,0,0,1-.41-.17l-1.13-1.13v-3l.48-.49.77.77h1.38L77.63,49a.46.46,0,0,0,.21,0,.63.63,0,0,0,.63-.66.64.64,0,0,0-1.27,0,1.8,1.8,0,0,0,.1.33l-.88.91H75.27l-1.45-1.54V46.46l.52-.44.85.78H76a.62.62,0,0,0,.59.4.64.64,0,0,0,.64-.66A.64.64,0,0,0,76,46.3h-.61l-1.53-1.54V42.45L75,41.34H76.1a.62.62,0,0,0,.57.34.65.65,0,0,0,.64-.62.64.64,0,0,0-1.23-.26H74.8l-.31.31-.06,0A3.06,3.06,0,0,0,71.94,40a3.4,3.4,0,0,0-3.39,3.53A3.45,3.45,0,0,0,71.94,47a3.27,3.27,0,0,0,1.46-.34v1.56L74,49l-.64.5v3.56s.9.77,1.36,1.25a1.19,1.19,0,0,0,.84.35l1.45,0,.85-.85h2.29l1.72-1.72h1l1.42-1.42v-3l1-1V44.18L84,43l1.29-1.29Zm-11.74-4a.11.11,0,1,1,.11-.11A.11.11,0,0,1,73.57,35.27Zm4.92-.9a.11.11,0,0,1,0,.22.11.11,0,0,1,0-.22ZM81.83,38a.11.11,0,1,1-.11.11A.11.11,0,0,1,81.83,38Zm-6.07-2.25a.11.11,0,1,1,.11-.11A.11.11,0,0,1,75.76,35.72Zm0,8.58a.11.11,0,1,1,.11-.11A.11.11,0,0,1,75.76,44.3ZM82,49.49a.11.11,0,1,1,.11-.11A.11.11,0,0,1,82,49.49ZM80,51.8a.11.11,0,1,1,.11-.11A.11.11,0,0,1,80,51.8Zm2.22-7.08a.11.11,0,1,1-.11.11A.11.11,0,0,1,82.17,44.72Zm-4,.4a.11.11,0,1,1,.11-.11A.11.11,0,0,1,78.17,45.12Zm-2.55,7a.11.11,0,0,1-.11-.11.11.11,0,0,1,.22,0A.11.11,0,0,1,75.62,52.14Zm2.22-3.87a.11.11,0,1,1-.11.11A.11.11,0,0,1,77.84,48.27Zm-1.28-1.82a.11.11,0,1,1-.11.11A.11.11,0,0,1,76.56,46.45Zm.11-5.51a.1.1,0,0,1,.11.11.11.11,0,0,1-.22,0A.1.1,0,0,1,76.67,40.94Zm-4.74,5.73a3.09,3.09,0,0,1-3-3.16,3,3,0,0,1,3-3.16,3,3,0,0,1,2.22,1h0l0,.06-.83.74v2.79l.74.77A3,3,0,0,1,71.93,46.67Z" transform="translate(-1.82 -1.82)"/><path class="cls-23" d="M73.79,37.5l.59,0-.57.53a.54.54,0,0,0-.29-.07.66.66,0,1,0,.66.66.6.6,0,0,0-.06-.27l.54-.49,1.1,1.3H77l1.57,1.57v.4a.65.65,0,0,0-.38.58.64.64,0,1,0,1.28,0,.63.63,0,0,0-.38-.57v-.59l-1.86-1.85H76l-1.31-1.52a.58.58,0,0,0-.45-.19h-.95s-6.84.15-7,7.13h.52A6.57,6.57,0,0,1,73.79,37.5Zm-.27,1.19a.11.11,0,0,1-.11-.1.11.11,0,0,1,.22,0A.11.11,0,0,1,73.52,38.69Zm5.29,2.88a.11.11,0,1,1-.11.11A.11.11,0,0,1,78.81,41.57Z" transform="translate(-1.82 -1.82)"/><path class="cls-24" d="M72.32,49.53a.22.22,0,0,0-.21-.19,6.06,6.06,0,0,1-4.2-1.62l-.36.37a6.88,6.88,0,0,0,4.56,1.69A.22.22,0,0,0,72.32,49.53Z" transform="translate(-1.82 -1.82)"/><path class="cls-25" d="M60.09,55v1H57.72c-.42,0-.6.27-.6.66a.59.59,0,0,0,.68.65h1.08c1.26,0,1.55.83,1.55,1.63S60,60.47,59,60.47H56.39v-1H59a.61.61,0,0,0,.64-.69c0-.36-.16-.68-.73-.68H57.83a1.4,1.4,0,0,1-1.52-1.6c0-.91.41-1.58,1.44-1.58Z" transform="translate(-1.82 -1.82)"/><path class="cls-25" d="M63.59,56.16c1,0,1.56.7,1.56,2.16s-.6,2.15-1.56,2.15H62V62.2h-.72V58c0-1.24.46-1.85,1.33-1.85ZM62,59.63h1.53c.63,0,.9-.38.9-1.31S64.15,57,63.52,57h-.71c-.59,0-.82.31-.82,1.06Z" transform="translate(-1.82 -1.82)"/><path class="cls-25" d="M68.37,56.16c.85,0,1.21.49,1.21,1.32s-.33,1.24-1.22,1.24H66.65V59c0,.34.15.59.55.59h2.21v.84H67.2c-.9,0-1.26-.6-1.26-1.42V57.58c0-.81.36-1.42,1.26-1.42Zm-1.72,1.89h1.69c.39,0,.53-.2.53-.52a.47.47,0,0,0-.51-.54H67.2c-.4,0-.55.27-.55.6Z" transform="translate(-1.82 -1.82)"/><path class="cls-25" d="M73.72,56.16V57H71.93c-.63,0-.9.4-.9,1.33s.27,1.31.9,1.31h1.79v.84H71.86c-1,0-1.56-.7-1.56-2.15s.6-2.16,1.56-2.16Z" transform="translate(-1.82 -1.82)"/><path class="cls-25" d="M75.05,56.16l.32,3.37c0,.18.09.27.26.27s.23-.08.27-.23L76.41,57a.93.93,0,0,1,1-.87.9.9,0,0,1,1,.87l.48,2.62a.25.25,0,0,0,.27.23c.17,0,.23-.09.25-.27l.38-3.37h.78l-.4,3.41c-.07.6-.36,1-1,1s-.86-.29-1-.89l-.49-2.62a.27.27,0,0,0-.53,0l-.51,2.62a.94.94,0,0,1-1,.89c-.67,0-.91-.4-1-1l-.38-3.41Z" transform="translate(-1.82 -1.82)"/><path class="cls-25" d="M82,54.54v1h-.73v-1Zm0,1.62v4.31h-.73V56.16Z" transform="translate(-1.82 -1.82)"/><path class="cls-25" d="M86,56.16V57H84c-.33,0-.47.17-.47.49s.11.47.52.47h.84c1,0,1.25.55,1.25,1.22s-.33,1.3-1.18,1.3h-2.1v-.84H85c.34,0,.47-.14.47-.47s-.15-.48-.51-.48h-.85a1.11,1.11,0,0,1-1.25-1.26c0-.78.34-1.26,1.18-1.26Z" transform="translate(-1.82 -1.82)"/><path class="cls-25" d="M89.37,56.16c.85,0,1.21.49,1.21,1.32s-.33,1.24-1.22,1.24H87.64V59a.52.52,0,0,0,.56.59h2.2v.84H88.2c-.91,0-1.26-.6-1.26-1.42V57.58c0-.81.35-1.42,1.26-1.42Zm-1.73,1.89h1.7c.39,0,.53-.2.53-.52a.48.48,0,0,0-.51-.54H88.2a.53.53,0,0,0-.56.6Z" transform="translate(-1.82 -1.82)"/><text class="cls-26" transform="translate(54.14 58.65) scale(0.84 1)">Spec<tspan class="cls-27" x="21.64" y="0">wise</tspan></text></svg>