<svg xmlns="http://www.w3.org/2000/svg" viewBox="0 0 442.25 455.35"><defs><style>.cls-1{fill:#ebebeb;}.cls-2{fill:#e0e0e0;}.cls-3{fill:#f5f5f5;}.cls-4{fill:#263238;}.cls-5{fill:#fff;}.cls-6{fill:#ff725e;}.cls-7{opacity:0.3;}.cls-8{opacity:0.2;}.cls-9{fill:#455a64;}.cls-10{fill:#ae7461;}.cls-11{fill:#6f4439;}</style></defs><g id="Background_Complete" data-name="Background Complete"><rect class="cls-1" x="264.41" y="427.35" width="69.36" height="14.25"/><path class="cls-1" d="M360.05,449.15s-15.39-16.15-18.12-34c-2.59-17-3.29-29-3.29-29h-18s-.69,12-3.29,29c-2.73,17.83-18.11,34-18.11,34l30.41-.44Z" transform="translate(-30.3 -23.03)"/><rect class="cls-1" x="262.45" y="425.56" width="72.77" height="3.57" rx="1.55"/><rect class="cls-1" x="284.87" y="358.89" width="28.93" height="5.04" rx="2.18"/><rect class="cls-1" x="281.44" y="354.21" width="35.6" height="4.68" rx="2.03"/><circle class="cls-1" cx="329.63" cy="361.89" r="16.86" transform="translate(-189.65 316.05) rotate(-45)"/><path class="cls-1" d="M317.77,387H342" transform="translate(-30.3 -23.03)"/><path class="cls-2" d="M342,387c0,.15-5.43.28-12.13.28s-12.14-.13-12.14-.28,5.43-.27,12.14-.27S342,386.8,342,387Z" transform="translate(-30.3 -23.03)"/><path class="cls-1" d="M314.45,381.92h29.09" transform="translate(-30.3 -23.03)"/><path class="cls-2" d="M343.54,381.92c0,.15-6.52.27-14.54.27s-14.55-.12-14.55-.27,6.51-.28,14.55-.28S343.54,381.77,343.54,381.92Z" transform="translate(-30.3 -23.03)"/><path class="cls-1" d="M319.24,377H340" transform="translate(-30.3 -23.03)"/><path class="cls-2" d="M340,377a95,95,0,0,1-10.39.28,95,95,0,0,1-10.39-.28,99.87,99.87,0,0,1,10.39-.27A99.87,99.87,0,0,1,340,377Z" transform="translate(-30.3 -23.03)"/><path class="cls-1" d="M295.06,448.59h62.86" transform="translate(-30.3 -23.03)"/><path class="cls-2" d="M357.92,448.59c0,.15-14.07.27-31.43.27s-31.43-.12-31.43-.27,14.07-.27,31.43-.27S357.92,448.44,357.92,448.59Z" transform="translate(-30.3 -23.03)"/><path class="cls-1" d="M294.24,452.16h70.29" transform="translate(-30.3 -23.03)"/><path class="cls-2" d="M364.53,452.16c0,.15-15.74.27-35.14.27s-35.15-.12-35.15-.27,15.73-.28,35.15-.28S364.53,452,364.53,452.16Z" transform="translate(-30.3 -23.03)"/><rect class="cls-3" x="371.31" y="431.33" width="49.81" height="10.24"/><path class="cls-3" d="M448.54,453.48s-11.05-11.59-13-24.41c-1.86-12.18-2.36-20.81-2.36-20.81H420.22s-.5,8.63-2.36,20.81c-2,12.82-13,24.41-13,24.41l21.84-.31Z" transform="translate(-30.3 -23.03)"/><rect class="cls-3" x="369.9" y="430.05" width="52.26" height="2.56" rx="1.28"/><rect class="cls-3" x="386" y="382.17" width="20.78" height="3.62" rx="1.81"/><rect class="cls-3" x="383.54" y="378.8" width="25.57" height="3.36" rx="1.68"/><circle class="cls-3" cx="396.39" cy="367.79" r="12.11"/><path class="cls-1" d="M418.18,408.81H435.6" transform="translate(-30.3 -23.03)"/><path class="cls-2" d="M435.6,408.81a80,80,0,0,1-8.71.24,80,80,0,0,1-8.71-.24,80,80,0,0,1,8.71-.24A80,80,0,0,1,435.6,408.81Z" transform="translate(-30.3 -23.03)"/><path class="cls-1" d="M415.79,405.19h20.89" transform="translate(-30.3 -23.03)"/><path class="cls-2" d="M436.68,405.19c0,.14-4.68.24-10.44.24s-10.45-.1-10.45-.24,4.68-.23,10.45-.23S436.68,405.06,436.68,405.19Z" transform="translate(-30.3 -23.03)"/><path class="cls-1" d="M419.23,401.7h14.93" transform="translate(-30.3 -23.03)"/><path class="cls-2" d="M434.16,401.7a121.26,121.26,0,0,1-14.93,0,116.22,116.22,0,0,1,14.93,0Z" transform="translate(-30.3 -23.03)"/><path class="cls-1" d="M401.87,453.08H447" transform="translate(-30.3 -23.03)"/><path class="cls-2" d="M447,453.08c0,.13-10.1.24-22.57.24s-22.57-.11-22.57-.24,10.1-.24,22.57-.24S447,453,447,453.08Z" transform="translate(-30.3 -23.03)"/><path class="cls-1" d="M401.28,455.64h50.48" transform="translate(-30.3 -23.03)"/><path class="cls-2" d="M451.76,455.64c0,.13-11.3.24-25.24.24s-25.24-.11-25.24-.24,11.3-.23,25.24-.23S451.76,455.51,451.76,455.64Z" transform="translate(-30.3 -23.03)"/><path class="cls-1" d="M258.87,379.37l6.94-2.25-1.1-12-7.24-.95a29,29,0,0,0-3.66-7l3.31-6.5-9.28-7.73-5.79,4.44a29.5,29.5,0,0,0-7.52-2.33l-2.25-6.94-12,1.1-1,7.24a29.23,29.23,0,0,0-7,3.66l-6.5-3.31-7.72,9.28,4.44,5.79a29.58,29.58,0,0,0-2.34,7.51l-6.94,2.26,1.1,12,7.24,1a29.6,29.6,0,0,0,3.66,7l-3.31,6.5,9.28,7.72,5.79-4.44a29.52,29.52,0,0,0,7.52,2.34l2.25,6.94,12-1.1.95-7.24a29.41,29.41,0,0,0,7-3.66l6.5,3.31,7.73-9.28-4.44-5.79A29.5,29.5,0,0,0,258.87,379.37Zm-19,2.87A13,13,0,1,1,238.18,364,12.95,12.95,0,0,1,239.85,382.24Z" transform="translate(-30.3 -23.03)"/><path class="cls-1" d="M463,133.67l3.79-1.23-.6-6.56-3.95-.52a16.46,16.46,0,0,0-2-3.8l1.81-3.54L457,113.8l-3.16,2.42a16.35,16.35,0,0,0-4.1-1.27l-1.23-3.79-6.56.61-.52,3.94a16.33,16.33,0,0,0-3.81,2l-3.54-1.81L429.87,121l2.42,3.16a15.74,15.74,0,0,0-1.28,4.1l-3.78,1.23.6,6.56,3.95.52a16,16,0,0,0,2,3.8l-1.8,3.54L437,148.1l3.16-2.42a16.35,16.35,0,0,0,4.1,1.27l1.23,3.78,6.56-.6.52-3.94a16.46,16.46,0,0,0,3.8-2L460,146l4.21-5.07-2.42-3.16A16.35,16.35,0,0,0,463,133.67Zm-10.37,1.57a7.07,7.07,0,1,1-.92-10A7.07,7.07,0,0,1,452.64,135.24Z" transform="translate(-30.3 -23.03)"/><path class="cls-1" d="M165.67,65.65l4.19-1.36L169.19,57l-4.36-.58a18,18,0,0,0-2.21-4.2l2-3.92L159,43.68l-3.49,2.68A17.69,17.69,0,0,0,151,45l-1.36-4.19-7.25.67-.58,4.36A17.77,17.77,0,0,0,137.6,48l-3.92-2L129,51.6l2.68,3.49a17.69,17.69,0,0,0-1.41,4.54L126.1,61l.67,7.25,4.36.58a17.77,17.77,0,0,0,2.21,4.2l-2,3.92,5.6,4.66,3.49-2.68A17.69,17.69,0,0,0,145,80.33l1.36,4.19,7.25-.67.58-4.36a18,18,0,0,0,4.2-2.21l3.92,2,4.66-5.6-2.68-3.49A17.69,17.69,0,0,0,165.67,65.65ZM154.2,67.38a7.81,7.81,0,1,1-1-11A7.82,7.82,0,0,1,154.2,67.38Z" transform="translate(-30.3 -23.03)"/><path class="cls-3" d="M128.31,336.43l3.75-1.21-.6-6.49-3.9-.51a15.89,15.89,0,0,0-2-3.76l1.78-3.51-5-4.16-3.13,2.39a16,16,0,0,0-4-1.26L114,314.18l-6.48.59-.52,3.9a16.51,16.51,0,0,0-3.76,2l-3.5-1.79-4.17,5,2.4,3.12a15.65,15.65,0,0,0-1.26,4.06l-3.75,1.21.6,6.49,3.9.51a15.57,15.57,0,0,0,2,3.76l-1.79,3.51,5,4.16,3.12-2.39a16.39,16.39,0,0,0,4,1.26L111,353.3l6.48-.59.52-3.91a16.09,16.09,0,0,0,3.76-2l3.5,1.79,4.17-5-2.4-3.12A15.65,15.65,0,0,0,128.31,336.43ZM118.05,338a7,7,0,1,1-.9-9.84A7,7,0,0,1,118.05,338Z" transform="translate(-30.3 -23.03)"/><path class="cls-3" d="M259.52,434.34l2.15,1.1,2.55-3.07-1.47-1.91a9.54,9.54,0,0,0,.77-2.48l2.29-.74-.36-4-2.39-.31a9.52,9.52,0,0,0-1.21-2.3l1.09-2.15L259.88,416,258,417.43a9.93,9.93,0,0,0-2.48-.77l-.74-2.29-4,.36-.31,2.39a9.52,9.52,0,0,0-2.3,1.21L246,417.24l-2.54,3.06,1.46,1.91a9.93,9.93,0,0,0-.77,2.48l-2.29.74.36,4,2.39.31a9.52,9.52,0,0,0,1.21,2.3l-1.09,2.15,3.06,2.55,1.91-1.47a9.54,9.54,0,0,0,2.48.77l.74,2.29,4-.36.31-2.39A9.52,9.52,0,0,0,259.52,434.34Zm-5.1-3.77a4.27,4.27,0,1,1,3.86-4.64A4.27,4.27,0,0,1,254.42,430.57Z" transform="translate(-30.3 -23.03)"/><path class="cls-3" d="M457.1,352.66l2.15,1.09,2.54-3.06-1.46-1.91a10.06,10.06,0,0,0,.77-2.48l2.29-.75-.36-4-2.39-.32a9.52,9.52,0,0,0-1.21-2.3l1.09-2.14-3.06-2.55-1.91,1.46a9.93,9.93,0,0,0-2.48-.77l-.74-2.29-4,.37-.31,2.38a10.28,10.28,0,0,0-2.3,1.21l-2.15-1.09-2.55,3.06,1.47,1.91a9.54,9.54,0,0,0-.77,2.48l-2.29.75.36,4,2.39.32a9.71,9.71,0,0,0,1.21,2.3l-1.09,2.14,3.06,2.55,1.91-1.47a9.56,9.56,0,0,0,2.48.78l.74,2.28,4-.36.31-2.39A9.86,9.86,0,0,0,457.1,352.66ZM452,348.89a4.27,4.27,0,1,1,3.87-4.65A4.27,4.27,0,0,1,452,348.89Z" transform="translate(-30.3 -23.03)"/><path class="cls-3" d="M49,308.23l2.15,1.09,2.54-3.06-1.46-1.91a9.93,9.93,0,0,0,.77-2.48l2.29-.75-.37-4-2.38-.32a9.91,9.91,0,0,0-1.21-2.3l1.09-2.14-3.06-2.55-1.91,1.47a9.17,9.17,0,0,0-2.48-.77l-.74-2.29-4,.36L39.9,291a9.64,9.64,0,0,0-2.29,1.21l-2.15-1.1-2.55,3.06,1.47,1.92a9.42,9.42,0,0,0-.77,2.48l-2.29.74.36,4,2.39.31a9.52,9.52,0,0,0,1.21,2.3L34.18,308l3.07,2.55,1.91-1.46a9.93,9.93,0,0,0,2.48.77l.74,2.29,4-.37.31-2.38A9.89,9.89,0,0,0,49,308.23Zm-5.11-3.77a4.27,4.27,0,1,1,3.87-4.64A4.26,4.26,0,0,1,43.85,304.46Z" transform="translate(-30.3 -23.03)"/><path class="cls-3" d="M326.42,64,328.56,65,331.11,62l-1.47-1.91a9.56,9.56,0,0,0,.78-2.48l2.29-.74-.37-4L330,52.57a10.28,10.28,0,0,0-1.21-2.3l1.09-2.15-3.06-2.54L324.87,47a10.06,10.06,0,0,0-2.48-.77L321.64,44l-4,.36-.32,2.39a9.52,9.52,0,0,0-2.3,1.21l-2.14-1.09-2.55,3.06,1.46,1.91a9.93,9.93,0,0,0-.77,2.48l-2.29.74.37,4,2.38.31a10.28,10.28,0,0,0,1.21,2.3l-1.09,2.15,3.06,2.55,1.91-1.47a10.06,10.06,0,0,0,2.48.77l.75,2.29,4-.36.32-2.39A9.52,9.52,0,0,0,326.42,64Zm-5.11-3.77a4.27,4.27,0,1,1,3.87-4.64A4.27,4.27,0,0,1,321.31,60.18Z" transform="translate(-30.3 -23.03)"/><path class="cls-1" d="M379.05,299.14l3.21-1-.51-5.55-3.34-.44a13.77,13.77,0,0,0-1.69-3.22l1.53-3L374,282.33l-2.67,2a13.93,13.93,0,0,0-3.47-1.07l-1-3.21-5.55.51-.44,3.34a14,14,0,0,0-3.22,1.69l-3-1.53L351,288.39l2.05,2.67a14.09,14.09,0,0,0-1.08,3.47l-3.2,1,.51,5.55,3.34.45a13.52,13.52,0,0,0,1.69,3.21l-1.53,3,4.29,3.57,2.67-2.05a13.55,13.55,0,0,0,3.47,1.08l1,3.2,5.55-.51.44-3.34a13.22,13.22,0,0,0,3.22-1.69l3,1.53,3.57-4.28-2-2.68A13.41,13.41,0,0,0,379.05,299.14Zm-8.78,1.33a6,6,0,1,1-.77-8.42A6,6,0,0,1,370.27,300.47Z" transform="translate(-30.3 -23.03)"/><path class="cls-3" d="M67.85,103l2.76-.89-.44-4.78L67.29,97a11.45,11.45,0,0,0-1.45-2.77l1.31-2.59-3.69-3.07-2.3,1.76a11.88,11.88,0,0,0-3-.92l-.9-2.76-4.78.44-.38,2.87a11.87,11.87,0,0,0-2.77,1.46l-2.58-1.32-3.07,3.69,1.76,2.3a12.47,12.47,0,0,0-.93,3l-2.76.9.44,4.78,2.88.38a11.45,11.45,0,0,0,1.45,2.77l-1.31,2.59,3.69,3.07,2.3-1.77a11.51,11.51,0,0,0,3,.93l.9,2.76,4.78-.44.38-2.87A12.25,12.25,0,0,0,63,110.7L65.61,112l3.08-3.69L66.92,106A11.4,11.4,0,0,0,67.85,103Zm-7.57,1.15a5.15,5.15,0,1,1-.66-7.26A5.15,5.15,0,0,1,60.28,104.18Z" transform="translate(-30.3 -23.03)"/></g><g id="Floor"><path class="cls-4" d="M464.07,464.6c0,.14-96.75.26-216.06.26s-216.08-.12-216.08-.26,96.73-.26,216.08-.26S464.07,464.45,464.07,464.6Z" transform="translate(-30.3 -23.03)"/></g><g id="Speech_Bubble_4" data-name="Speech Bubble 4"><path class="cls-5" d="M381.58,256a28.67,28.67,0,1,0,9.87-26.24c-2.53-.72-6.75-1.66-6.5-.61a19.72,19.72,0,0,0,2,5.42Q379.69,243.58,381.58,256Z" transform="translate(-30.3 -23.03)"/><path class="cls-4" d="M381.58,256s0-.13-.07-.38-.1-.66-.17-1.15a32.21,32.21,0,0,1-.21-4.49,26.7,26.7,0,0,1,1.16-7.07,26.32,26.32,0,0,1,4.53-8.44v.18a12.11,12.11,0,0,1-1.23-2.68q-.24-.72-.45-1.47c-.07-.25-.13-.5-.2-.75l-.1-.39c0-.06,0-.11,0-.2a.41.41,0,0,1,0-.3.66.66,0,0,1,.43-.28,2.22,2.22,0,0,1,.43-.06,5.71,5.71,0,0,1,.83,0c.55,0,1.1.14,1.65.24,1.1.22,2.2.49,3.32.8l-.16,0a28.7,28.7,0,0,1,11.08-5.82,29.43,29.43,0,0,1,13.93-.28,12.32,12.32,0,0,1,1.78.48c.59.19,1.2.34,1.78.56a30.41,30.41,0,0,1,3.45,1.56,28.14,28.14,0,0,1,6.31,4.46l1.41,1.39c.45.49.86,1,1.29,1.52l.65.77.56.83c.37.56.78,1.09,1.12,1.67a31.58,31.58,0,0,1,3.19,7.53,30.75,30.75,0,0,1,.87,9.52,27.54,27.54,0,0,1-2.18,9A28.73,28.73,0,0,1,410.3,280.5a28.31,28.31,0,0,1-13.37-3.12,29.11,29.11,0,0,1-8.9-7.05,30.33,30.33,0,0,1-2.74-3.79,28.82,28.82,0,0,1-1.76-3.52c-.22-.55-.46-1.06-.63-1.55l-.42-1.41c-.14-.43-.26-.83-.37-1.2s-.14-.72-.2-1c-.11-.6-.19-1.06-.26-1.39s-.07-.48-.07-.48.05.16.12.47l.3,1.38c.07.3.14.64.22,1l.38,1.2.45,1.39c.18.49.42,1,.65,1.53a27.87,27.87,0,0,0,1.77,3.47,29.67,29.67,0,0,0,2.75,3.74,29,29,0,0,0,8.85,6.93,28,28,0,0,0,13.22,3,28.35,28.35,0,0,0,25.87-17.49,27.38,27.38,0,0,0,2.14-8.88,30.42,30.42,0,0,0-.86-9.37,30.92,30.92,0,0,0-3.14-7.4c-.33-.57-.73-1.1-1.1-1.65l-.55-.82-.64-.76c-.42-.5-.82-1-1.27-1.49l-1.38-1.37a30,30,0,0,0-9.61-5.94c-.57-.22-1.17-.37-1.75-.56a13.72,13.72,0,0,0-1.75-.47,29,29,0,0,0-13.73.24,28.56,28.56,0,0,0-11,5.71l-.07.06-.09,0c-1.11-.32-2.21-.6-3.3-.81a14.94,14.94,0,0,0-1.61-.25,6.87,6.87,0,0,0-.78,0c-.24,0-.54.07-.59.17a.08.08,0,0,0,0,.08c0,.05,0,.13,0,.19l.09.38c.07.25.13.5.2.75.13.49.28,1,.44,1.45a12,12,0,0,0,1.18,2.62l.05.09-.06.08a26.27,26.27,0,0,0-4.54,8.32,27,27,0,0,0-1.22,7,36.79,36.79,0,0,0,.13,4.47c.06.49.1.87.13,1.15A3.83,3.83,0,0,1,381.58,256Z" transform="translate(-30.3 -23.03)"/><path class="cls-5" d="M431.37,231.13a28.67,28.67,0,0,1-14.48,50,28.25,28.25,0,0,1-8.61,0,28.67,28.67,0,0,0,32,3.77c2.3,1.26,6.22,3.1,6.2,2a19.62,19.62,0,0,0-.75-5.72c6.05-4.83,9.34-11.41,9.92-19.74A28.67,28.67,0,0,0,431.37,231.13Z" transform="translate(-30.3 -23.03)"/><path class="cls-4" d="M431.37,231.13l1.21.21c.41.07.93.16,1.53.28l2,.6a30.29,30.29,0,0,1,5.33,2.34,30.75,30.75,0,0,1,6.18,4.76,29.48,29.48,0,0,1,5.48,7.85A28.75,28.75,0,0,1,455.87,258,31.21,31.21,0,0,1,454,270.37a26.07,26.07,0,0,1-3.22,5.95,27.5,27.5,0,0,1-4.88,5.07l.07-.24a12.71,12.71,0,0,1,.62,3.05c.05.52.09,1.05.11,1.58l0,.79V287a.54.54,0,0,1-.41.48,2.17,2.17,0,0,1-.89,0l-.79-.23c-.51-.18-1-.39-1.51-.61-1-.44-2-.93-2.93-1.45h.21a28.92,28.92,0,0,1-32.26-3.8l-.57-.5.75.11a28.56,28.56,0,0,0,26.08-9.87,28.88,28.88,0,0,0,5.74-11,27.72,27.72,0,0,0,.74-10.69,27.37,27.37,0,0,0-2.32-8.48,28.19,28.19,0,0,0-3.4-5.66,32.29,32.29,0,0,0-2.75-3.11l-1-1,.29.25c.19.16.46.37.8.69a28.08,28.08,0,0,1,2.82,3.08,28.2,28.2,0,0,1,5.89,14.19,28.33,28.33,0,0,1-.7,10.82,29.22,29.22,0,0,1-5.77,11.15,28.91,28.91,0,0,1-26.45,10.06l.18-.38a28.49,28.49,0,0,0,31.76,3.73l.11-.05.11.06c.95.51,1.91,1,2.89,1.43.49.22,1,.42,1.48.6a3.52,3.52,0,0,0,1.42.27c.08,0,.07,0,.08-.08v-.37l0-.79c0-.52-.05-1-.1-1.54a12.36,12.36,0,0,0-.6-2.95l-.05-.15.12-.09a27,27,0,0,0,4.81-5,25.58,25.58,0,0,0,3.18-5.84A30.76,30.76,0,0,0,455.5,258a28.52,28.52,0,0,0-2.67-10.69,29.45,29.45,0,0,0-5.38-7.8,28.4,28.4,0,0,0-11.36-7.16l-2-.62-1.47-.32Z" transform="translate(-30.3 -23.03)"/><path class="cls-4" d="M401.94,252.08a3.7,3.7,0,1,1-3.7-3.7A3.7,3.7,0,0,1,401.94,252.08Z" transform="translate(-30.3 -23.03)"/><circle class="cls-4" cx="379.27" cy="229.05" r="3.7"/><circle class="cls-4" cx="390.6" cy="229.05" r="3.7"/></g><g id="Speech_Bubble_3" data-name="Speech Bubble 3"><path class="cls-5" d="M422.29,195.56a30.25,30.25,0,1,0-10-27.81c-2.52,1.14-6.56,3.27-5.63,3.95a20.93,20.93,0,0,0,5.29,3Q412.29,186.92,422.29,195.56Z" transform="translate(-30.3 -23.03)"/><path class="cls-4" d="M422.29,195.56a3.18,3.18,0,0,1-.32-.26l-.92-.81a33,33,0,0,1-3.24-3.46,28.2,28.2,0,0,1-3.89-6.47,27.53,27.53,0,0,1-2.14-9.87l.11.14a12.83,12.83,0,0,1-2.82-1.31c-.46-.27-.91-.56-1.36-.87l-.68-.47-.34-.24-.17-.13a.47.47,0,0,1-.17-.27.68.68,0,0,1,.15-.51,2,2,0,0,1,.31-.34,6.05,6.05,0,0,1,.68-.55c.48-.33,1-.63,1.49-.93,1-.58,2.1-1.11,3.22-1.63l-.11.14A30.51,30.51,0,0,1,417,155.47a31,31,0,0,1,11-9.74,14.84,14.84,0,0,1,1.75-.84c.6-.25,1.2-.53,1.81-.76A33,33,0,0,1,435.4,143a30.05,30.05,0,0,1,8.12-.72l2.09.15c.69.08,1.37.22,2.07.33l1,.18,1,.28c.68.19,1.38.34,2.05.58a32.61,32.61,0,0,1,7.69,3.86,32.18,32.18,0,0,1,7.21,7,29.06,29.06,0,0,1,4.42,8.72,30.28,30.28,0,0,1-9,32.16,29.87,29.87,0,0,1-12.86,6.64,30.87,30.87,0,0,1-12,.42,28.14,28.14,0,0,1-8.61-2.79c-.55-.29-1.08-.53-1.56-.81l-1.3-.84-1.12-.72-.86-.68-1.16-.94c-.26-.21-.38-.33-.38-.33l.41.3,1.19.9.87.66,1.12.7,1.31.81c.47.27,1,.51,1.56.79a31.81,31.81,0,0,0,3.81,1.58,33,33,0,0,0,4.76,1.12,30.36,30.36,0,0,0,11.85-.49,29.42,29.42,0,0,0,12.69-6.6,29.91,29.91,0,0,0,8.82-31.74,28.62,28.62,0,0,0-4.36-8.6,31.84,31.84,0,0,0-7.1-6.94,32.42,32.42,0,0,0-7.58-3.8c-.66-.23-1.34-.38-2-.58l-1-.27-1-.18c-.69-.11-1.36-.25-2.05-.33l-2.05-.15a29.57,29.57,0,0,0-8,.71,32.12,32.12,0,0,0-3.78,1.09c-.61.22-1.19.5-1.78.75a13.18,13.18,0,0,0-1.74.82,30.52,30.52,0,0,0-10.86,9.59,30.12,30.12,0,0,0-4.9,12.07v.1l-.09,0c-1.1.5-2.18,1-3.19,1.6-.51.29-1,.58-1.47.91a6.65,6.65,0,0,0-.65.51c-.19.17-.39.42-.36.55a.15.15,0,0,0,.05.08l.16.12.34.24.67.47c.44.3.89.59,1.34.86a12.88,12.88,0,0,0,2.74,1.3l.1,0v.1a27.44,27.44,0,0,0,2.05,9.79,28.36,28.36,0,0,0,3.81,6.46,36.71,36.71,0,0,0,3.16,3.5l.89.84Z" transform="translate(-30.3 -23.03)"/><path class="cls-6" d="M433.3,192.59a5.67,5.67,0,0,0,1.05-2,2.9,2.9,0,0,1,.31-.72l8.75,7.18a1.5,1.5,0,0,0,2.12-.21l7.48-9.1-1-.85a2.43,2.43,0,0,0-.81-.43,5,5,0,1,1,6-6.93,2.39,2.39,0,0,0,.65.86l.73.59,7.6-9.19a1.86,1.86,0,0,0-.25-2.61l-8.11-6.67.52-.63.18-.21a6.09,6.09,0,1,0-7.53-6.92,3.62,3.62,0,0,1-.27.41l-.67.81-9-7.44a1.86,1.86,0,0,0-2.61.26l-20.68,25.18a1.51,1.51,0,0,0,.2,2.12l9.22,7.57a2.58,2.58,0,0,1-.53.32,5.54,5.54,0,0,0-2.52,2.31,5.63,5.63,0,0,0,9.24,6.34Z" transform="translate(-30.3 -23.03)"/></g><g id="Speech_Bubble_2" data-name="Speech Bubble 2"><path class="cls-5" d="M418.58,108.64a30.26,30.26,0,1,0-29.42-2.92c-.05,2.77.13,7.32,1.14,6.78a20.91,20.91,0,0,0,5-3.49Q406.47,113.95,418.58,108.64Z" transform="translate(-30.3 -23.03)"/><path class="cls-4" d="M418.58,108.64l-.38.17-1.12.49a36.61,36.61,0,0,1-4.52,1.43,27,27,0,0,1-17.34-1.58l.17,0a13.32,13.32,0,0,1-2.4,2c-.44.29-.9.58-1.37.85l-.71.41-.37.21-.19.1a.41.41,0,0,1-.31,0,.66.66,0,0,1-.4-.36,2.53,2.53,0,0,1-.18-.42,6.17,6.17,0,0,1-.2-.85c-.09-.57-.15-1.15-.19-1.74-.09-1.18-.11-2.38-.09-3.61l.07.15a30.42,30.42,0,0,1-8.94-9.71A30.83,30.83,0,0,1,376.05,82a14,14,0,0,1,0-1.94c0-.66,0-1.31.09-2a31.26,31.26,0,0,1,.65-3.93,30,30,0,0,1,2.83-7.65c.35-.6.69-1.2,1-1.81s.8-1.15,1.2-1.73l.61-.86.69-.8c.46-.53.9-1.1,1.4-1.6a32.64,32.64,0,0,1,6.8-5.29A32.31,32.31,0,0,1,400.81,51a29.26,29.26,0,0,1,9.78-.24,30.28,30.28,0,0,1,25.16,22,29.76,29.76,0,0,1,.46,14.46,30.9,30.9,0,0,1-4.76,11,33.14,33.14,0,0,1-3.12,3.82,30.73,30.73,0,0,1-3.11,2.75c-.5.37-1,.75-1.4,1.06l-1.32.82-1.13.7-1,.48-1.34.64-.46.21s.14-.09.44-.25l1.32-.68,1-.5,1.11-.72,1.3-.83c.45-.31.89-.69,1.38-1.07A28.24,28.24,0,0,0,431.24,98a30.41,30.41,0,0,0,4.65-10.9,29.5,29.5,0,0,0-.5-14.3,30,30,0,0,0-24.86-21.62,29,29,0,0,0-9.64.24,32.16,32.16,0,0,0-9.32,3.43,32.51,32.51,0,0,0-6.69,5.2c-.5.5-.93,1.06-1.39,1.58l-.68.79-.6.85c-.39.57-.81,1.12-1.18,1.7l-1,1.78a29.37,29.37,0,0,0-2.8,7.54,32.22,32.22,0,0,0-.65,3.87c-.06.65-.06,1.3-.09,1.94a13.67,13.67,0,0,0,0,1.92,30.34,30.34,0,0,0,4,13.92,29.92,29.92,0,0,0,8.8,9.62l.08.05v.1c0,1.22,0,2.41.08,3.57,0,.58.09,1.16.18,1.71a6.84,6.84,0,0,0,.19.81c.07.25.21.54.34.56s.05,0,.09,0l.18-.09.36-.2.71-.4c.47-.27.92-.55,1.36-.84a13.18,13.18,0,0,0,2.35-1.92l.07-.08.1,0a27.56,27.56,0,0,0,9.72,2.36,28.76,28.76,0,0,0,7.47-.66,38.64,38.64,0,0,0,4.52-1.35l1.13-.45Z" transform="translate(-30.3 -23.03)"/><rect class="cls-3" x="378.31" y="59.05" width="56.4" height="45.09" transform="translate(-37.5 31.14) rotate(-7.56)"/><path class="cls-4" d="M431.5,55.54l-.27.05-.79.11-3,.43L416,57.7l-40.34,5.46.17-.23c1.78,13.3,3.81,28.55,6,44.69h0l-.26-.19,55.91-7.38-.16.21c-1.74-13.45-3.19-24.6-4.2-32.41-.5-3.9-.89-7-1.15-9.07l-.3-2.4c-.07-.55-.09-.84-.09-.84s.05.26.12.79.19,1.34.34,2.36c.29,2.09.71,5.14,1.24,9,1.07,7.83,2.59,19,4.42,32.5l0,.19-.19,0-55.9,7.46-.22,0,0-.23h0c-2.14-16.14-4.15-31.39-5.91-44.7l0-.2.21,0,40.49-5.27L427.47,56l3-.38.77-.09Z" transform="translate(-30.3 -23.03)"/><rect class="cls-6" x="380.26" y="61.9" width="52.43" height="39.41" transform="translate(-37.5 31.14) rotate(-7.56)"/><g class="cls-7"><polygon points="352.77 81.56 367.71 54.86 380.97 68.56 387.52 59.43 404.75 74.66 352.77 81.56"/></g><g class="cls-7"><path d="M413.63,72.79A4.13,4.13,0,1,1,409,69.24,4.13,4.13,0,0,1,413.63,72.79Z" transform="translate(-30.3 -23.03)"/></g></g><g id="Speech_Bubble_1" data-name="Speech Bubble 1"><path class="cls-5" d="M134.36,69a38.25,38.25,0,1,0-6.9,36.76c3.48.37,9.25.63,8.67-.7-.46-1.06-2-4.75-3.85-6.65Q139.72,84.85,134.36,69Z" transform="translate(-30.3 -23.03)"/><path class="cls-4" d="M134.36,69s.07.17.18.5L135,71a43.72,43.72,0,0,1,1.29,5.84,35.61,35.61,0,0,1,.09,9.55,35,35,0,0,1-4,12.11l0-.15a16.55,16.55,0,0,1,2.22,3.22c.32.59.63,1.2.93,1.82.14.31.29.63.43.95l.21.48a1.45,1.45,0,0,1,.11.25.49.49,0,0,1,0,.36.87.87,0,0,1-.46.43,2.81,2.81,0,0,1-.54.17,8.16,8.16,0,0,1-1.09.15c-.73.06-1.47.07-2.21.06-1.49,0-3-.13-4.55-.29l.14-.05a38.38,38.38,0,0,1-13.2,10.18,39.15,39.15,0,0,1-18.2,3.56,17,17,0,0,1-2.45-.21c-.81-.11-1.64-.18-2.46-.33a40.48,40.48,0,0,1-4.87-1.25,37.7,37.7,0,0,1-9.31-4.4l-2.17-1.5c-.7-.53-1.35-1.12-2-1.69l-1-.86-.93-.95c-.61-.65-1.27-1.26-1.86-2a38.47,38.47,0,0,1-3.23-4.34,41.32,41.32,0,0,1-2.67-4.79,40.63,40.63,0,0,1-3.33-12.27,36.57,36.57,0,0,1,.77-12.33,38.55,38.55,0,0,1,11.6-20,9.24,9.24,0,0,1,1.06-.91L74.35,51l1.08-.86c.37-.27.76-.5,1.14-.76.77-.49,1.51-1,2.28-1.46l2.38-1.22a13.07,13.07,0,0,1,1.19-.58l1.22-.48c.81-.31,1.61-.66,2.42-.93L88.52,44c.41-.11.81-.24,1.22-.33L91,43.49l2.44-.42,2.41-.18L97,42.8c.39,0,.79,0,1.18,0l2.34.06c.77,0,1.52.17,2.27.25s1.5.15,2.22.31l2.14.49,1,.23c.34.1.67.22,1,.33a38.8,38.8,0,0,1,13.31,7.19A39.5,39.5,0,0,1,127,56l1.72,2.15a21.55,21.55,0,0,1,1.41,2c.42.67.85,1.28,1.19,1.89s.61,1.2.89,1.74.52,1,.76,1.5.35.91.5,1.3c.29.76.51,1.35.67,1.76s.21.6.21.6-.09-.2-.25-.59-.4-1-.71-1.74l-.52-1.29c-.24-.45-.49-1-.77-1.48s-.59-1.11-.91-1.73-.78-1.21-1.2-1.87a20.3,20.3,0,0,0-1.42-2l-1.71-2.13a40.24,40.24,0,0,0-4.48-4.29,38.56,38.56,0,0,0-13.25-7.09l-1-.32-1-.23L105,43.74c-.71-.16-1.46-.2-2.2-.3s-1.49-.23-2.25-.24l-2.32-.06c-.39,0-.78,0-1.17,0l-1.19.09-2.39.18L91,43.83,89.82,44c-.41.09-.81.22-1.21.33l-2.44.69c-.8.26-1.59.61-2.4.92l-1.21.48c-.4.15-.78.38-1.17.57L79,48.25c-.76.46-1.5,1-2.26,1.45-.38.26-.77.49-1.13.76l-1.06.85-1.08.86a10,10,0,0,0-1,.91A38.16,38.16,0,0,0,61,72.84,36.58,36.58,0,0,0,60.25,85a40.35,40.35,0,0,0,3.29,12.14,41.88,41.88,0,0,0,2.65,4.73,38.67,38.67,0,0,0,3.2,4.3c.57.68,1.22,1.28,1.83,1.92l.92,1,1,.85c.68.56,1.33,1.15,2,1.67l2.15,1.48a36.73,36.73,0,0,0,9.2,4.37,39.66,39.66,0,0,0,4.82,1.24c.81.15,1.63.22,2.44.33a18,18,0,0,0,2.42.21,38.75,38.75,0,0,0,18-3.5,38.21,38.21,0,0,0,13.1-10.06l.06-.07h.08c1.54.16,3.05.27,4.52.3.74,0,1.47,0,2.18,0a7.18,7.18,0,0,0,1.05-.15c.32-.07.71-.2.79-.4s0-.22-.11-.39l-.21-.48c-.14-.32-.29-.63-.43-.94-.29-.62-.59-1.23-.91-1.81a16.64,16.64,0,0,0-2.17-3.18l-.07-.07,0-.09a34.74,34.74,0,0,0,4-12,36,36,0,0,0,0-9.5A46,46,0,0,0,134.94,71c-.19-.65-.34-1.14-.44-1.48S134.36,69,134.36,69Z" transform="translate(-30.3 -23.03)"/><path class="cls-6" d="M118.75,73.74a21.32,21.32,0,1,0-29.94,20c.06,2.52.12,5.37.12,5.37l18.68-.43s0-3,0-5.72A21.32,21.32,0,0,0,118.75,73.74Z" transform="translate(-30.3 -23.03)"/><path class="cls-5" d="M96.54,99.61c-.21-7.3.06-14.61-.29-21.91-.07-1.45-.17-2.9-.36-4.34-.27-2-.85-4.21-2.82-5.21s-3.78.15-4.62,2a9.62,9.62,0,0,0-.56,5.66,10.32,10.32,0,0,0,7,8.09,10.38,10.38,0,0,0,13.1-13,4.73,4.73,0,0,0-3.34-3.26c-2.11-.33-3.43,1.51-3.94,3.31a28.19,28.19,0,0,0-.69,5.87c-.13,2.13-.19,4.26-.23,6.38-.09,4.36-.07,8.72-.15,13.08,0,1,0,2-.08,3,0,.79,1.2,1,1.22.17.28-7.64,0-15.29.5-22.92a24.85,24.85,0,0,1,.62-5.24,3.41,3.41,0,0,1,1.55-2.28,1.93,1.93,0,0,1,2,.31,5.51,5.51,0,0,1,1.8,4.2,9.59,9.59,0,0,1-1.17,5,9.12,9.12,0,0,1-16.41-1,9.46,9.46,0,0,1-.58-5c.26-1.59,1.24-4.06,3.29-3.22,1.83.75,2.14,3,2.35,4.71.16,1.31.24,2.63.31,3.95.32,6.63.14,13.28.25,19.92,0,.66,0,1.32,0,2s1.26.64,1.23-.15Z" transform="translate(-30.3 -23.03)"/><path class="cls-4" d="M90.94,93a1.17,1.17,0,0,1-.25-.07c-.16-.06-.41-.13-.71-.26a17.66,17.66,0,0,1-2.49-1.2,19.83,19.83,0,0,1-3.34-2.4,19.62,19.62,0,0,1-3.31-3.78,19.91,19.91,0,0,1-3.2-8.49A17.84,17.84,0,0,1,77.48,74a7.29,7.29,0,0,1,0-.76,1.33,1.33,0,0,1,0-.26,1.1,1.1,0,0,1,0,.27c0,.17,0,.42,0,.75a20.61,20.61,0,0,0,.21,2.75A20.4,20.4,0,0,0,81,85.2,20.3,20.3,0,0,0,84.25,89a20.94,20.94,0,0,0,3.29,2.41A22.13,22.13,0,0,0,90,92.6c.3.14.54.22.7.29Z" transform="translate(-30.3 -23.03)"/><path class="cls-4" d="M78.34,68.93A4,4,0,0,1,78.18,70a4.22,4.22,0,0,1-.32,1.06A3.84,3.84,0,0,1,78,70,4,4,0,0,1,78.34,68.93Z" transform="translate(-30.3 -23.03)"/><path class="cls-4" d="M116.51,78.75a.73.73,0,0,1,0-.22l.12-.64c0-.14,0-.3.08-.46s0-.36.07-.56c0-.39.11-.84.11-1.35q0-.37,0-.78c0-.28,0-.56,0-.86a18.46,18.46,0,0,0-.15-1.88,22.88,22.88,0,0,0-1-4.19,22.41,22.41,0,0,0-1.85-3.9c-.36-.56-.69-1.1-1-1.56-.18-.23-.34-.47-.52-.68l-.52-.6a12.9,12.9,0,0,0-.93-1l-.39-.39-.36-.31L109.7,59a1.46,1.46,0,0,1-.17-.16,1,1,0,0,1,.19.14l.5.4.37.3.4.39a11,11,0,0,1,1,1l.53.59c.18.21.34.45.53.68.37.46.71,1,1.08,1.56a22.75,22.75,0,0,1,1.86,3.93,21.54,21.54,0,0,1,1,4.23,18.2,18.2,0,0,1,.13,1.89c0,.29,0,.58,0,.86s0,.54,0,.79a11.73,11.73,0,0,1-.14,1.35c0,.2,0,.39-.08.56s-.06.32-.09.46l-.15.63C116.53,78.68,116.51,78.75,116.51,78.75Z" transform="translate(-30.3 -23.03)"/><g class="cls-8"><path class="cls-5" d="M96.25,59a3.78,3.78,0,0,0-2.58-1.84,6.66,6.66,0,0,0-5,.68,16.16,16.16,0,0,0-8.51,10.69c-.5,1.76-.7,4.66.2,6.35a3.47,3.47,0,0,0,2.13,1.77c2.43.64,4.28-1.74,5-4s.84-4.46,2.28-6.11c1.19-1.37,3-2,4.5-3S97,60.61,96.25,59Z" transform="translate(-30.3 -23.03)"/></g><g class="cls-8"><path class="cls-5" d="M104.77,57.92a3.38,3.38,0,0,0-3.94-1.31A3.46,3.46,0,0,0,99,59a3.18,3.18,0,0,0,1.48,3.23,3,3,0,0,0,3.51-.42C104.9,61,105.43,59,104.77,57.92Z" transform="translate(-30.3 -23.03)"/></g><g id="_2gGvdE.tif" data-name="2gGvdE.tif"><path class="cls-9" d="M94.4,109.82a5.83,5.83,0,0,1,1.24,1.06,1.26,1.26,0,0,0,1,.45l3.75-.1a1.24,1.24,0,0,0,1-.58,2.42,2.42,0,0,1,1.26-1Z" transform="translate(-30.3 -23.03)"/></g><path class="cls-4" d="M90.08,99.46c0,.07,1,5.92,1.4,8.16a2.78,2.78,0,0,0,1.6,2.09,2.67,2.67,0,0,0,1.08.21l8.22-.2s2.15,0,2.59-1.77,1.27-8.88,1.27-8.88Z" transform="translate(-30.3 -23.03)"/><path class="cls-2" d="M105.48,107.15l-14.32.4a.41.41,0,0,1-.42-.4v0a.4.4,0,0,1,.4-.42l14.32-.4a.4.4,0,0,1,.41.4v0A.42.42,0,0,1,105.48,107.15Z" transform="translate(-30.3 -23.03)"/><path class="cls-4" d="M105.48,107.15a.44.44,0,0,0,.27-.14.4.4,0,0,0,.1-.34.38.38,0,0,0-.31-.34c-.77,0-1.93.06-3.34.1l-11.06.33a.33.33,0,0,0-.28.16.3.3,0,0,0,0,.16.5.5,0,0,0,0,.17.34.34,0,0,0,.23.22,2.28,2.28,0,0,0,.37,0l1.56,0,2.93-.08,5-.12,3.35-.07.91,0h0l-.91,0-3.35.12-5,.15-2.94.08-1.55,0h-.2a.56.56,0,0,1-.22,0,.47.47,0,0,1-.32-.31.58.58,0,0,1,0-.22.52.52,0,0,1,.07-.22.47.47,0,0,1,.39-.23l11.07-.29c1.41,0,2.55-.07,3.35-.06a.43.43,0,0,1,.34.4.42.42,0,0,1-.12.36A.35.35,0,0,1,105.48,107.15Z" transform="translate(-30.3 -23.03)"/><rect class="cls-2" x="90.39" y="104.64" width="15.75" height="0.86" rx="0.41" transform="translate(-33.18 -20.26) rotate(-1.59)"/><path class="cls-4" d="M105.74,105.29a.41.41,0,0,0,.28-.14.46.46,0,0,0,.09-.36.39.39,0,0,0-.35-.33l-3.48.12-11.49.34a.34.34,0,0,0-.29.17.47.47,0,0,0,0,.16.45.45,0,0,0,0,.18.3.3,0,0,0,.26.2c.11,0,.27,0,.4,0l1.61,0,3-.09,5.17-.12,3.48-.08h1.19l-.24,0-1,0-3.48.11-5.17.16-3,.09-1.61,0c-.14,0-.26,0-.42,0a.47.47,0,0,1-.37-.28.71.71,0,0,1,0-.24.46.46,0,0,1,.06-.23.48.48,0,0,1,.41-.24l11.49-.3,3.48-.07a.44.44,0,0,1,.39.37.48.48,0,0,1-.11.39C105.87,105.33,105.73,105.29,105.74,105.29Z" transform="translate(-30.3 -23.03)"/><rect class="cls-2" x="90.15" y="102.79" width="16.13" height="0.86" rx="0.41" transform="translate(-33.13 -20.26) rotate(-1.59)"/><path class="cls-4" d="M105.89,103.44a.46.46,0,0,0,.28-.15.44.44,0,0,0,.08-.37.38.38,0,0,0-.37-.31l-3.57.12-11.76.34a.38.38,0,0,0-.29.18.35.35,0,0,0,0,.17.32.32,0,0,0,0,.18.33.33,0,0,0,.27.19H91l1.65,0,3.12-.08,5.29-.13,3.57-.08,1,0h0l-1,0-3.56.12-5.29.16-3.13.1-1.65,0h-.43a.49.49,0,0,1-.44-.5.5.5,0,0,1,.06-.24.47.47,0,0,1,.41-.25l11.76-.31,3.57-.08a.43.43,0,0,1,.41.36.47.47,0,0,1-.1.4A.32.32,0,0,1,105.89,103.44Z" transform="translate(-30.3 -23.03)"/><rect class="cls-2" x="89.8" y="100.94" width="16.76" height="0.86" rx="0.41" transform="translate(-33.07 -20.26) rotate(-1.59)"/><path class="cls-4" d="M106.15,101.58a.42.42,0,0,0,.3-.16.45.45,0,0,0,.06-.39.38.38,0,0,0-.41-.28l-3.7.12-12.2.36a.35.35,0,0,0-.3.19.47.47,0,0,0,0,.37.36.36,0,0,0,.31.16h.44l1.71,0,3.24-.09,5.49-.14,3.7-.08h1.26l-.26,0-1,0-3.7.12-5.49.17-3.24.09-1.71,0h-.44a.48.48,0,0,1-.43-.23.57.57,0,0,1-.06-.25.45.45,0,0,1,0-.25.47.47,0,0,1,.41-.26l12.21-.32,3.7-.08a.42.42,0,0,1,.45.32.48.48,0,0,1-.08.42.49.49,0,0,1-.23.14A.21.21,0,0,1,106.15,101.58Z" transform="translate(-30.3 -23.03)"/><path class="cls-6" d="M87.88,94.44c0,.15.43,3.74.65,5.58a2.2,2.2,0,0,0,1,1.63l.85.52,15.89-.38.82-.56a2.18,2.18,0,0,0,1-1.7l.34-5.59Z" transform="translate(-30.3 -23.03)"/><g class="cls-7"><path d="M91.69,107.5a20.62,20.62,0,0,0,4.75.25c1.35,0,2.69,0,4.16-.1,1.08-.05,2.07-.13,3.14-.2a2.92,2.92,0,0,0,1.25-.3Z" transform="translate(-30.3 -23.03)"/></g><g class="cls-7"><path d="M91.08,105.66a24.58,24.58,0,0,0,5.12.24c1.46,0,2.89,0,4.48-.11,1.16-.05,2.23-.13,3.39-.2a3.22,3.22,0,0,0,1.34-.31Z" transform="translate(-30.3 -23.03)"/></g><g class="cls-7"><path d="M91,103.82a23.31,23.31,0,0,0,5.12.24c1.46,0,2.9,0,4.49-.1,1.16,0,2.23-.13,3.39-.21a3.55,3.55,0,0,0,1.34-.3Z" transform="translate(-30.3 -23.03)"/></g><g class="cls-7"><path d="M91,102a23.9,23.9,0,0,0,5.12.25c1.46,0,2.89,0,4.48-.11,1.16-.05,2.23-.13,3.39-.2a3.4,3.4,0,0,0,1.34-.31Z" transform="translate(-30.3 -23.03)"/></g><g class="cls-7"><path d="M87.88,94.44c0,.15.43,3.74.65,5.58a2.2,2.2,0,0,0,1,1.63l.85.52,15.89-.38.82-.56a2.18,2.18,0,0,0,1-1.7l.34-5.59Z" transform="translate(-30.3 -23.03)"/></g><path class="cls-4" d="M107.73,100.3s-4.25.18-9.49.3-9.5.2-9.5.16,4.25-.17,9.5-.29S107.73,100.27,107.73,100.3Z" transform="translate(-30.3 -23.03)"/><path class="cls-4" d="M108.33,93.84s-4.62.2-10.31.37-10.32.25-10.32.21,4.61-.21,10.31-.37S108.32,93.8,108.33,93.84Z" transform="translate(-30.3 -23.03)"/></g><g id="Chess_Pawn" data-name="Chess Pawn"><rect class="cls-6" x="302.54" y="424.97" width="80.79" height="16.6"/><path class="cls-6" d="M409,446.57S391,427.76,387.85,407c-3-19.76-3.83-33.76-3.83-33.76H363s-.81,14-3.83,33.76c-3.18,20.78-21.1,39.59-21.1,39.59l35.43-.51Z" transform="translate(-30.3 -23.03)"/><rect class="cls-6" x="300.25" y="422.89" width="84.76" height="4.16" rx="1.91"/><rect class="cls-6" x="326.37" y="345.23" width="33.7" height="5.87" rx="2.7"/><rect class="cls-6" x="322.38" y="339.77" width="41.47" height="5.46" rx="2.51"/><circle class="cls-6" cx="343.22" cy="321.9" r="19.64"/><path class="cls-4" d="M388,374.12c0,.14-6.33.26-14.13.26s-14.14-.12-14.14-.26,6.33-.26,14.14-.26S388,374,388,374.12Z" transform="translate(-30.3 -23.03)"/><path class="cls-4" d="M389.72,368.26c0,.14-7.59.25-16.94.25s-16.94-.11-16.94-.25,7.58-.26,16.94-.26S389.72,368.11,389.72,368.26Z" transform="translate(-30.3 -23.03)"/><path class="cls-4" d="M385.62,362.58c0,.14-5.42.26-12.1.26s-12.1-.12-12.1-.26,5.41-.26,12.1-.26S385.62,362.44,385.62,362.58Z" transform="translate(-30.3 -23.03)"/><path class="cls-4" d="M406.47,445.92c0,.14-16.39.26-36.61.26s-36.61-.12-36.61-.26,16.39-.26,36.61-.26S406.47,445.77,406.47,445.92Z" transform="translate(-30.3 -23.03)"/><path class="cls-4" d="M414.17,450.07c0,.15-18.33.26-40.93.26s-40.94-.11-40.94-.26,18.32-.25,40.94-.25S414.17,449.93,414.17,450.07Z" transform="translate(-30.3 -23.03)"/></g><g id="AI"><path class="cls-6" d="M268.3,252.65a77.17,77.17,0,1,1,77.17-77.17A77.25,77.25,0,0,1,268.3,252.65Zm0-153.46a76.3,76.3,0,1,0,76.3,76.29A76.37,76.37,0,0,0,268.3,99.19Z" transform="translate(-30.3 -23.03)"/><g id="freepik--brain-side-2--inject-2"><path class="cls-6" d="M310,138.82s1.78-1.81-1.27-6.22-2.92-6.09-7-7.44-4.94-2.25-7.74-4.15-8.77-8.57-18.17-6.55-7.32,9.47-7.6,13.3.66,10.27,0,13.65-.73,8.23,0,10.26,0,13,0,13v31.58s-1.3,28.76,1.88,31.92,9.68,7,19,4.17,12.38-5.17,14.54-7.33c0,0,7-2.71,6.88-10a13.19,13.19,0,0,0,4.69-4.73c1.78-3.16,4.07-5.3,4.58-8.35S319,198,319,198s1.52-.45,2.16-4.51,2.29-6.32,1.9-8.12a6.79,6.79,0,0,0-1.77-3.16,4,4,0,0,0,1.83-2.71,45.92,45.92,0,0,0,.84-10.15,12.15,12.15,0,0,0-.9-4.4s.39-8.12-2.92-9.25l-1.4-.56s1.4-1-.12-3.5-1.27-5.52-2.67-7.55S313.16,138.48,310,138.82Z" transform="translate(-30.3 -23.03)"/><g class="cls-8"><path class="cls-5" d="M301.6,148.68a4.23,4.23,0,0,1,1.69-.39,2.9,2.9,0,0,1,1,.11,19,19,0,0,1,3.31,1.12,6.45,6.45,0,0,1,2.85,2.39,1.55,1.55,0,0,1,.1,1.73,1.63,1.63,0,0,1-1.42.5,3.82,3.82,0,0,1-1.48-.5c-1.6-.83-3-2-4.76-2.52-.8-.24-1.8-.45-1.95-1.22A1.16,1.16,0,0,1,301.6,148.68Z" transform="translate(-30.3 -23.03)"/></g><g class="cls-8"><path class="cls-5" d="M291.8,132.78a4.07,4.07,0,0,1,1.69-.4,3.18,3.18,0,0,1,1,.11,19.83,19.83,0,0,1,3.31,1.12,6.43,6.43,0,0,1,2.86,2.4,1.53,1.53,0,0,1,.09,1.72,1.67,1.67,0,0,1-1.42.51,3.84,3.84,0,0,1-1.48-.51c-1.59-.83-3-2-4.76-2.52-.8-.23-1.79-.45-1.95-1.22A1.15,1.15,0,0,1,291.8,132.78Z" transform="translate(-30.3 -23.03)"/></g><g class="cls-8"><path class="cls-5" d="M272.46,120c.43-.75.76-1.67,1.56-2.1a12,12,0,0,1,4.39-1.28h0c3.4-.45,6.73,1.07,9.5,2.89s5.27,4,8.41,5.23a5.51,5.51,0,0,1,1.25.59,1.27,1.27,0,0,1,.61,1.07c-.06.72-1,1.12-1.8,1.23-2.72.36-5.4-.8-7.64-2.21s-4.3-3.1-6.83-4.06a4.8,4.8,0,0,0-3.89-.1c-.79.43-1.28,1.21-2.09,1.63a2.68,2.68,0,0,1-3.4-.81A2,2,0,0,1,272.46,120Z" transform="translate(-30.3 -23.03)"/></g><g class="cls-8"><path class="cls-5" d="M315.67,164.9a1.58,1.58,0,0,0-1.66.15,7,7,0,0,0-1.17,1.21c-1.6,1.82-1.73,3.66-4.28,4.14s-5.2.74-7.48,1.85c-.57.28-1.17.66-1.3,1.22a1.5,1.5,0,0,0,1,1.6,4.25,4.25,0,0,0,2.15.28A22.4,22.4,0,0,0,310,173.2c3.14-1.34,4.55-3.53,5.88-6.38C315.93,166.81,316.74,165.59,315.67,164.9Z" transform="translate(-30.3 -23.03)"/></g><g class="cls-8"><path class="cls-5" d="M295,176.11l.54-.17a1.52,1.52,0,0,1,1.51,1.55,1.67,1.67,0,0,1-3.2.28,1.34,1.34,0,0,1,1.08-1.64Z" transform="translate(-30.3 -23.03)"/></g></g><g id="freepik--brain-side-1--inject-2"><path class="cls-6" d="M226.62,138s-1.78-1.81,1.27-6.22,2.92-6.09,7-7.44,5-2.26,7.76-4.17,8.76-8.57,18.17-6.56,7.32,9.47,7.6,13.31-.67,10.26,0,13.64.73,8.23,0,10.26,0,13,0,13V195.4s1.29,28.76-1.88,31.92-9.68,7-19,4.18-12.39-5.18-14.54-7.34c0,0-7-2.7-6.88-10a13,13,0,0,1-4.69-4.73c-1.78-3.16-4.07-5.3-4.58-8.35s.78-3.83.78-3.83-1.53-.45-2.16-4.51-2.29-6.32-1.91-8.12a7,7,0,0,1,1.78-3.16,4,4,0,0,1-1.84-2.71,46.56,46.56,0,0,1-.83-10.15,12.31,12.31,0,0,1,.89-4.4s-.39-8.12,2.92-9.25l1.41-.56s-1.41-1,.12-3.5,1.27-5.52,2.67-7.55S223.44,137.69,226.62,138Z" transform="translate(-30.3 -23.03)"/><g class="cls-8"><path class="cls-5" d="M235,147.89a4.23,4.23,0,0,0-1.7-.39,2.84,2.84,0,0,0-1,.11,18.42,18.42,0,0,0-3.31,1.12,6.36,6.36,0,0,0-2.86,2.39,1.55,1.55,0,0,0-.1,1.73,1.63,1.63,0,0,0,1.42.5,4,4,0,0,0,1.48-.5c1.6-.84,3-2,4.77-2.52.77-.24,1.79-.45,1.94-1.22A1.16,1.16,0,0,0,235,147.89Z" transform="translate(-30.3 -23.03)"/></g><g class="cls-8"><path class="cls-5" d="M244.8,132a4.07,4.07,0,0,0-1.69-.4,3.15,3.15,0,0,0-1,.11,19.24,19.24,0,0,0-3.31,1.12,6.43,6.43,0,0,0-2.86,2.4,1.53,1.53,0,0,0-.1,1.72,1.67,1.67,0,0,0,1.42.51,4,4,0,0,0,1.48-.51c1.6-.83,3-2,4.77-2.52.79-.24,1.79-.45,1.94-1.22A1.15,1.15,0,0,0,244.8,132Z" transform="translate(-30.3 -23.03)"/></g><g class="cls-8"><path class="cls-5" d="M265.49,117.88a4.92,4.92,0,0,0-1.56-2.1,12,12,0,0,0-4.42-1.28h0c-3.4-.45-6.74,1.07-9.5,2.89s-5.26,4-8.4,5.25a5.86,5.86,0,0,0-1.24.58,1.28,1.28,0,0,0-.62,1.07c.06.73,1,1.13,1.81,1.24,2.72.36,5.39-.8,7.63-2.21s4.3-3.11,6.83-4.06a4.8,4.8,0,0,1,3.89-.1c.78.43,1.28,1.21,2.09,1.63a2.69,2.69,0,0,0,3.4-.81,2,2,0,0,0,.07-2.09Z" transform="translate(-30.3 -23.03)"/></g><g class="cls-8"><path class="cls-5" d="M221.69,168.65a1.44,1.44,0,0,1,1.6.47,7.08,7.08,0,0,1,.89,1.56c1.2,2.3.94,4.36,3.34,5.37s5,1.79,7,3.43a2.37,2.37,0,0,1,1,1.6,1.74,1.74,0,0,1-1.28,1.59,3.88,3.88,0,0,1-2.16-.1,20.45,20.45,0,0,1-6.58-3.71c-2.8-2.06-3.73-4.74-4.44-8.14C221,170.7,220.49,169.21,221.69,168.65Z" transform="translate(-30.3 -23.03)"/></g><g class="cls-8"><path class="cls-5" d="M239.69,184.89l-.49-.28a1.61,1.61,0,0,0-1.8,1.42,1.63,1.63,0,0,0,3.08.91,1.52,1.52,0,0,0-.72-2Z" transform="translate(-30.3 -23.03)"/></g></g><path class="cls-4" d="M262.63,184.3a1.7,1.7,0,0,1-.46.16c-.31.09-.76.18-1.36.29a17.91,17.91,0,0,1-5.11.1,18.48,18.48,0,0,1-7.18-2.4,18.9,18.9,0,0,1-6.56-6.54,18.63,18.63,0,0,1-2.05-4.92l.25.17a10.46,10.46,0,0,1-7.23-1.28,10.09,10.09,0,0,1-4.89-8.12,5.79,5.79,0,0,1,0-1,1.45,1.45,0,0,1,0-.36s0,.5.09,1.39a10.48,10.48,0,0,0,1.06,3.66,9.84,9.84,0,0,0,3.87,4.15,10.2,10.2,0,0,0,7,1.17l.2,0,.06.2a18.51,18.51,0,0,0,2,4.79,18.38,18.38,0,0,0,13.39,8.87,19.81,19.81,0,0,0,5.05,0C262,184.42,262.62,184.26,262.63,184.3Z" transform="translate(-30.3 -23.03)"/><path class="cls-4" d="M252.76,165.61a3.29,3.29,0,0,1-1-.13,10,10,0,0,1-2.53-1,11.28,11.28,0,0,1-3.13-2.56,10.42,10.42,0,0,1-2.27-9.35,11.25,11.25,0,0,1,1.59-3.71,9.67,9.67,0,0,1,1.8-2,3.34,3.34,0,0,1,.81-.57,16.21,16.21,0,0,0-2.34,2.79,11.64,11.64,0,0,0-1.46,3.62,10.94,10.94,0,0,0,0,4.76,10.79,10.79,0,0,0,2.15,4.23,11.34,11.34,0,0,0,3,2.55A16.64,16.64,0,0,0,252.76,165.61Z" transform="translate(-30.3 -23.03)"/><path class="cls-4" d="M248.05,131.91a14.52,14.52,0,0,0-2.56-.56,11.23,11.23,0,0,0-6.06,1.33,23.1,23.1,0,0,0-5,3.83,19.61,19.61,0,0,1-1.94,1.82,13,13,0,0,1,1.71-2,19.87,19.87,0,0,1,5.05-4,10.72,10.72,0,0,1,6.31-1.25,7.24,7.24,0,0,1,1.9.52C247.85,131.74,248.07,131.88,248.05,131.91Z" transform="translate(-30.3 -23.03)"/><path class="cls-4" d="M257.2,208.74a1.68,1.68,0,0,1-.39.23,9.56,9.56,0,0,1-1.21.51,13,13,0,0,1-4.76.7,13.22,13.22,0,0,1-3.3-.55,8.47,8.47,0,0,1-3.38-1.84,15.53,15.53,0,0,1-2.73-3.25,24.71,24.71,0,0,1-2.09-4c-.21-.51-.39-1-.55-1.5l.33.13a8.13,8.13,0,0,1-4.17,1.07,6.93,6.93,0,0,1-3.78-1.27,9.63,9.63,0,0,1-3.73-5.44,6.05,6.05,0,0,1,.36-4.39,3.62,3.62,0,0,1,1-1.26,9.13,9.13,0,0,0-.87,1.33,6.07,6.07,0,0,0-.21,4.24,9.4,9.4,0,0,0,3.66,5.18,6.49,6.49,0,0,0,3.56,1.17,7.83,7.83,0,0,0,3.94-1l.24-.14.08.26c.16.47.34,1,.54,1.46a23.47,23.47,0,0,0,2.05,4,14.81,14.81,0,0,0,2.63,3.18,8.07,8.07,0,0,0,3.21,1.8,13,13,0,0,0,3.21.59,13.76,13.76,0,0,0,4.69-.55C256.62,209,257.19,208.7,257.2,208.74Z" transform="translate(-30.3 -23.03)"/><path class="cls-4" d="M305.35,182s.09.1.22.31a5.24,5.24,0,0,1,.5.95,9.33,9.33,0,0,1,.77,3.93,9.17,9.17,0,0,1-2,5.63,9.75,9.75,0,0,1-6.49,3.57l.16-.35a3.94,3.94,0,0,1,.64,2.79,6.63,6.63,0,0,1-2.16,3.85,21.79,21.79,0,0,1-3.21,2.54,25,25,0,0,1-6.24,2.93A23.22,23.22,0,0,1,283,209a11.8,11.8,0,0,1-1.26.08,1.9,1.9,0,0,1-.44,0,16.88,16.88,0,0,1,1.68-.24,26.63,26.63,0,0,0,4.48-1.06,25.14,25.14,0,0,0,6.1-3,23.17,23.17,0,0,0,3.13-2.5,6.3,6.3,0,0,0,2-3.59,3.6,3.6,0,0,0-.55-2.48l-.23-.31.39-.05a9.44,9.44,0,0,0,6.22-3.38,9,9,0,0,0,2-5.38,9.59,9.59,0,0,0-.62-3.85C305.59,182.43,305.32,182,305.35,182Z" transform="translate(-30.3 -23.03)"/><path class="cls-4" d="M308.63,157.55a2.19,2.19,0,0,1,.06.81,8.48,8.48,0,0,1-.38,2.19A11.5,11.5,0,0,1,304,166.4a16.52,16.52,0,0,1-6.74,2.74,20,20,0,0,1-2.2.27,2.55,2.55,0,0,1-.81,0c0-.08,1.14-.17,2.94-.57a17.86,17.86,0,0,0,6.55-2.8,11.94,11.94,0,0,0,4.25-5.58A17.22,17.22,0,0,0,308.63,157.55Z" transform="translate(-30.3 -23.03)"/><path class="cls-4" d="M309.3,138.23a1.8,1.8,0,0,1-.12.37,6.72,6.72,0,0,1-.47,1,10.81,10.81,0,0,1-8.2,5.41,11.08,11.08,0,0,1-7.13-1.79,10.52,10.52,0,0,1-2.12-1.85l.37,0a6.76,6.76,0,0,1-5.47,3.18,5.89,5.89,0,0,1-2.75-.54,6.7,6.7,0,0,1-2-1.4,6.45,6.45,0,0,1-1.66-3,4.41,4.41,0,0,1-.13-.92,1,1,0,0,1,0-.32s.06.44.28,1.2a6.67,6.67,0,0,0,1.71,2.82,5.9,5.9,0,0,0,4.49,1.75,6.38,6.38,0,0,0,5.1-3l.16-.26.2.23a10.2,10.2,0,0,0,2,1.76,10.79,10.79,0,0,0,6.84,1.75,10.55,10.55,0,0,0,5.41-2.14,11.38,11.38,0,0,0,2.68-2.94C309.06,138.7,309.26,138.21,309.3,138.23Z" transform="translate(-30.3 -23.03)"/><path class="cls-4" d="M294.43,163.58a5.82,5.82,0,0,1,.47,2.23,11.54,11.54,0,0,1-4.27,9.77,5.77,5.77,0,0,1-1.95,1.17c0-.06.72-.49,1.74-1.42a12.43,12.43,0,0,0,4.16-9.51C294.56,164.44,294.36,163.6,294.43,163.58Z" transform="translate(-30.3 -23.03)"/><path class="cls-4" d="M298.68,216.69c-.07,0,.15-.79.15-2.06a8.67,8.67,0,0,0-4.9-7.89c-1.13-.56-1.92-.71-1.9-.78a4.45,4.45,0,0,1,2,.49,8.36,8.36,0,0,1,5.08,8.19A4.6,4.6,0,0,1,298.68,216.69Z" transform="translate(-30.3 -23.03)"/><g class="cls-7"><path d="M268.28,213.17a9.71,9.71,0,0,1-8.11-2.08,14.4,14.4,0,0,1-24-6,10.79,10.79,0,0,1-13.9-13.34c-3.87-1-6.88-6.35-6.9-10.36l-.65.78a6.86,6.86,0,0,0-1.13,2.38c-.38,1.8,1.28,4.06,1.91,8.12s2.16,4.51,2.16,4.51-1.29.79-.78,3.83,2.8,5.19,4.58,8.35a13,13,0,0,0,4.69,4.73c-.13,7.34,6.88,10,6.88,10,2.15,2.16,5.2,4.51,14.54,7.34s15.84-1,19-4.18c.65-.65,1.11-2.38,1.44-4.71Z" transform="translate(-30.3 -23.03)"/></g><g class="cls-7"><path d="M268,213.53c2.54.64,6.57.19,8.47-1.62a14.41,14.41,0,0,0,24.05-6,10.78,10.78,0,0,0,13.89-13.34c3.87-1,6.89-6.36,6.91-10.37l.65.79a6.79,6.79,0,0,1,1.12,2.37c.38,1.81-1.27,4.06-1.9,8.12S319,198,319,198s1.29.8.78,3.84-2.8,5.19-4.58,8.34a13.14,13.14,0,0,1-4.69,4.74c.12,7.33-6.88,10-6.88,10-2.16,2.15-5.21,4.51-14.54,7.33s-15.84-1-19-4.17c-.65-.65-1.12-2.38-1.44-4.72Z" transform="translate(-30.3 -23.03)"/></g><path class="cls-4" d="M268.28,221.91c-.12,0-.23-22.34-.23-49.89s.11-49.9.23-49.9.23,22.33.23,49.9S268.41,221.91,268.28,221.91Z" transform="translate(-30.3 -23.03)"/><path class="cls-6" d="M268.31,70.57a8,8,0,1,1,8-8A8,8,0,0,1,268.31,70.57Zm0-15.16a7.14,7.14,0,1,0,7.14,7.14A7.14,7.14,0,0,0,268.31,55.41Z" transform="translate(-30.3 -23.03)"/><path class="cls-6" d="M300.59,39.05a8,8,0,1,1,8-8A8,8,0,0,1,300.59,39.05Zm0-15.15A7.14,7.14,0,1,0,307.73,31,7.14,7.14,0,0,0,300.59,23.9Z" transform="translate(-30.3 -23.03)"/><polygon class="cls-6" points="255.24 77.13 254.37 77.13 254.37 54.21 269.85 39.34 269.85 15.59 270.72 15.59 270.72 39.71 255.24 54.59 255.24 77.13"/><path class="cls-6" d="M301.8,106.22h-.87V92.49a10.75,10.75,0,0,1,10.73-10.74h23v.87h-23a9.88,9.88,0,0,0-9.86,9.87Z" transform="translate(-30.3 -23.03)"/><rect class="cls-6" x="321.69" y="117.7" width="10.27" height="0.87" transform="translate(-19.72 239.19) rotate(-44.37)"/><path class="cls-6" d="M348,143.05h-10.5v-.87H348a10.82,10.82,0,0,0,10.8-10.81V108.72h.87v22.65A11.69,11.69,0,0,1,348,143.05Z" transform="translate(-30.3 -23.03)"/><polygon class="cls-6" points="335.81 134.36 312.86 134.36 312.86 133.49 335.47 133.49 350.79 119.15 372.09 119.15 372.09 120.02 351.13 120.02 335.81 134.36"/><rect class="cls-6" x="314.72" y="150.66" width="27.86" height="0.87"/><polygon class="cls-6" points="373.22 184.36 351.06 184.36 334.4 169.2 312.27 169.2 312.27 168.33 334.74 168.33 351.4 183.49 373.22 183.49 373.22 184.36"/><path class="cls-6" d="M361.37,240.1h-.87V217.23a10.66,10.66,0,0,0-10.65-10.64H339.11v-.88h10.74a11.54,11.54,0,0,1,11.52,11.52Z" transform="translate(-30.3 -23.03)"/><rect class="cls-6" x="324.74" y="228.96" width="0.87" height="8.33" transform="translate(-99.9 275.21) rotate(-45)"/><path class="cls-6" d="M334.27,267.1H307.58a7,7,0,0,1-7-7V244.6h.88v15.53a6.11,6.11,0,0,0,6.1,6.1h26.69Z" transform="translate(-30.3 -23.03)"/><polygon class="cls-6" points="270.55 284.76 269.68 284.76 269.68 263.87 254.38 247.7 254.38 227.87 255.25 227.87 255.25 247.35 270.55 263.53 270.55 284.76"/><rect class="cls-6" x="237.88" y="229.93" width="0.87" height="25.79"/><path class="cls-6" d="M268.61,293.74a7.71,7.71,0,1,1,7.72-7.71A7.72,7.72,0,0,1,268.61,293.74Zm0-14.55a6.84,6.84,0,1,0,6.84,6.84A6.85,6.85,0,0,0,268.61,279.19Z" transform="translate(-30.3 -23.03)"/><path class="cls-6" d="M300.58,323.09a7.71,7.71,0,1,1,7.71-7.71A7.72,7.72,0,0,1,300.58,323.09Zm0-14.55a6.84,6.84,0,1,0,6.84,6.84A6.85,6.85,0,0,0,300.58,308.54Z" transform="translate(-30.3 -23.03)"/><path class="cls-6" d="M341.54,274.15a7.72,7.72,0,1,1,7.71-7.72A7.72,7.72,0,0,1,341.54,274.15Zm0-14.56a6.84,6.84,0,1,0,6.84,6.84A6.85,6.85,0,0,0,341.54,259.59Z" transform="translate(-30.3 -23.03)"/><path class="cls-6" d="M333.43,248.48a7.71,7.71,0,1,1,7.71-7.71A7.72,7.72,0,0,1,333.43,248.48Zm0-14.55a6.84,6.84,0,1,0,6.84,6.84A6.85,6.85,0,0,0,333.43,233.93Z" transform="translate(-30.3 -23.03)"/><path class="cls-6" d="M380.16,181.82a7.71,7.71,0,1,1,7.71-7.71A7.72,7.72,0,0,1,380.16,181.82Zm0-14.55a6.84,6.84,0,1,0,6.84,6.84A6.85,6.85,0,0,0,380.16,167.27Z" transform="translate(-30.3 -23.03)"/><path class="cls-6" d="M359.54,109.16a7.72,7.72,0,1,1,7.71-7.71A7.71,7.71,0,0,1,359.54,109.16Zm0-14.55a6.84,6.84,0,1,0,6.84,6.84A6.84,6.84,0,0,0,359.54,94.61Z" transform="translate(-30.3 -23.03)"/><path class="cls-6" d="M334.68,116.47a7.71,7.71,0,1,1,7.71-7.71A7.72,7.72,0,0,1,334.68,116.47Zm0-14.55a6.84,6.84,0,1,0,6.84,6.84A6.85,6.85,0,0,0,334.68,101.92Z" transform="translate(-30.3 -23.03)"/><path class="cls-6" d="M342.1,89.29a7.71,7.71,0,1,1,7.71-7.71A7.72,7.72,0,0,1,342.1,89.29Zm0-14.55a6.84,6.84,0,1,0,6.84,6.84A6.84,6.84,0,0,0,342.1,74.74Z" transform="translate(-30.3 -23.03)"/><path class="cls-6" d="M361.07,255.35a7.71,7.71,0,1,1,7.71-7.71A7.72,7.72,0,0,1,361.07,255.35Zm0-14.55a6.84,6.84,0,1,0,6.84,6.84A6.85,6.85,0,0,0,361.07,240.8Z" transform="translate(-30.3 -23.03)"/><path class="cls-6" d="M410.8,214a7.71,7.71,0,1,1,7.71-7.71A7.72,7.72,0,0,1,410.8,214Zm0-14.55a6.84,6.84,0,1,0,6.84,6.84A6.85,6.85,0,0,0,410.8,199.43Z" transform="translate(-30.3 -23.03)"/><path class="cls-6" d="M409.67,149.46a7.72,7.72,0,1,1,7.71-7.72A7.72,7.72,0,0,1,409.67,149.46Zm0-14.56a6.84,6.84,0,1,0,6.84,6.84A6.85,6.85,0,0,0,409.67,134.9Z" transform="translate(-30.3 -23.03)"/><rect class="cls-6" x="236.96" y="47.1" width="0.87" height="28.62"/><path class="cls-6" d="M236,39.05a8,8,0,1,1,8-8A8,8,0,0,1,236,39.05Zm0-15.15A7.14,7.14,0,1,0,243.18,31,7.15,7.15,0,0,0,236,23.9Z" transform="translate(-30.3 -23.03)"/><polygon class="cls-6" points="221.66 77.13 220.78 77.13 220.78 54.59 205.3 39.71 205.3 15.59 206.17 15.59 206.17 39.34 221.66 54.21 221.66 77.13"/><path class="cls-6" d="M235.7,106.22h-.87V92.49A9.88,9.88,0,0,0,225,82.62H202v-.87h23A10.75,10.75,0,0,1,235.7,92.49Z" transform="translate(-30.3 -23.03)"/><rect class="cls-6" x="209.65" y="112.87" width="0.87" height="10.98" transform="translate(-51.35 164.06) rotate(-45.96)"/><path class="cls-6" d="M199.15,143.05H188.66A11.69,11.69,0,0,1,177,131.37V108.72h.88v22.65a10.81,10.81,0,0,0,10.8,10.81h10.49Z" transform="translate(-30.3 -23.03)"/><polygon class="cls-6" points="163.16 134.36 140.21 134.36 124.89 120.02 103.93 120.02 103.93 119.15 125.23 119.15 140.55 133.49 163.16 133.49 163.16 134.36"/><rect class="cls-6" x="133.44" y="150.66" width="27.86" height="0.87"/><polygon class="cls-6" points="124.96 184.36 102.8 184.36 102.8 183.49 124.62 183.49 141.28 168.33 163.75 168.33 163.75 169.2 141.62 169.2 124.96 184.36"/><path class="cls-6" d="M176.13,240.1h-.88V217.23a11.54,11.54,0,0,1,11.52-11.52h10.75v.88H186.77a10.65,10.65,0,0,0-10.64,10.64Z" transform="translate(-30.3 -23.03)"/><rect class="cls-6" x="207.28" y="232.69" width="8.33" height="0.87" transform="translate(-133.21 194.77) rotate(-45)"/><path class="cls-6" d="M229,267.1H202.36v-.87H229a6.11,6.11,0,0,0,6.11-6.1V244.6H236v15.53A7,7,0,0,1,229,267.1Z" transform="translate(-30.3 -23.03)"/><polygon class="cls-6" points="206.35 284.76 205.47 284.76 205.47 263.53 220.77 247.35 220.77 227.87 221.64 227.87 221.64 247.7 206.35 263.87 206.35 284.76"/><path class="cls-6" d="M236,322.78a7.71,7.71,0,1,1,7.71-7.71A7.72,7.72,0,0,1,236,322.78Zm0-14.55a6.84,6.84,0,1,0,6.84,6.84A6.85,6.85,0,0,0,236,308.23Z" transform="translate(-30.3 -23.03)"/><path class="cls-6" d="M195.08,274.15a7.72,7.72,0,1,1,7.71-7.72A7.72,7.72,0,0,1,195.08,274.15Zm0-14.56a6.84,6.84,0,1,0,6.84,6.84A6.85,6.85,0,0,0,195.08,259.59Z" transform="translate(-30.3 -23.03)"/><path class="cls-6" d="M203.19,248.48a7.71,7.71,0,1,1,7.72-7.71A7.72,7.72,0,0,1,203.19,248.48Zm0-14.55a6.84,6.84,0,1,0,6.84,6.84A6.85,6.85,0,0,0,203.19,233.93Z" transform="translate(-30.3 -23.03)"/><path class="cls-6" d="M156.47,181.82a7.71,7.71,0,1,1,7.71-7.71A7.72,7.72,0,0,1,156.47,181.82Zm0-14.55a6.84,6.84,0,1,0,6.84,6.84A6.85,6.85,0,0,0,156.47,167.27Z" transform="translate(-30.3 -23.03)"/><path class="cls-6" d="M177.09,109.16a7.72,7.72,0,1,1,7.71-7.71A7.72,7.72,0,0,1,177.09,109.16Zm0-14.55a6.84,6.84,0,1,0,6.84,6.84A6.84,6.84,0,0,0,177.09,94.61Z" transform="translate(-30.3 -23.03)"/><path class="cls-6" d="M201.94,116.47a7.71,7.71,0,1,1,7.71-7.71A7.72,7.72,0,0,1,201.94,116.47Zm0-14.55a6.84,6.84,0,1,0,6.84,6.84A6.85,6.85,0,0,0,201.94,101.92Z" transform="translate(-30.3 -23.03)"/><path class="cls-6" d="M194.53,89.29a7.71,7.71,0,1,1,7.71-7.71A7.72,7.72,0,0,1,194.53,89.29Zm0-14.55a6.84,6.84,0,1,0,6.84,6.84A6.85,6.85,0,0,0,194.53,74.74Z" transform="translate(-30.3 -23.03)"/><path class="cls-6" d="M175.69,255.25a7.71,7.71,0,1,1,7.71-7.71A7.72,7.72,0,0,1,175.69,255.25Zm0-14.55a6.84,6.84,0,1,0,6.84,6.84A6.85,6.85,0,0,0,175.69,240.7Z" transform="translate(-30.3 -23.03)"/><path class="cls-6" d="M125.11,214.13a7.71,7.71,0,1,1,7.72-7.71A7.72,7.72,0,0,1,125.11,214.13Zm0-14.55a6.84,6.84,0,1,0,6.84,6.84A6.85,6.85,0,0,0,125.11,199.58Z" transform="translate(-30.3 -23.03)"/><path class="cls-6" d="M127,149.46a7.72,7.72,0,1,1,7.72-7.72A7.72,7.72,0,0,1,127,149.46Zm0-14.56a6.84,6.84,0,1,0,6.84,6.84A6.85,6.85,0,0,0,127,134.9Z" transform="translate(-30.3 -23.03)"/></g><g id="Device"><rect class="cls-2" x="89.56" y="355.92" width="99.14" height="94.77" rx="3.87"/><path class="cls-4" d="M219.17,409.2c0,.11-22.14.19-49.45.19s-49.45-.08-49.45-.19,22.13-.19,49.45-.19S219.17,409.1,219.17,409.2Z" transform="translate(-30.3 -23.03)"/><path class="cls-4" d="M219.17,439.63c0,.1-22.14.19-49.45.19s-49.45-.09-49.45-.19,22.13-.19,49.45-.19S219.17,439.52,219.17,439.63Z" transform="translate(-30.3 -23.03)"/><path class="cls-5" d="M140,394.94a2.16,2.16,0,1,1-2.15-2.15A2.16,2.16,0,0,1,140,394.94Z" transform="translate(-30.3 -23.03)"/><path class="cls-5" d="M147.78,394.94a2.16,2.16,0,1,1-2.16-2.15A2.16,2.16,0,0,1,147.78,394.94Z" transform="translate(-30.3 -23.03)"/><path class="cls-4" d="M194.25,399h0a1,1,0,0,1-1-1v-5.37a1,1,0,0,1,1-1h0a1,1,0,0,1,1,1V398A1,1,0,0,1,194.25,399Z" transform="translate(-30.3 -23.03)"/><path class="cls-4" d="M199.22,399h0a1,1,0,0,1-1-1v-5.37a1,1,0,0,1,1-1h0a1,1,0,0,1,1,1V398A1,1,0,0,1,199.22,399Z" transform="translate(-30.3 -23.03)"/><path class="cls-5" d="M203.8,399h0a1,1,0,0,1-1-1v-5.37a1,1,0,0,1,1-1h0a1,1,0,0,1,1,1V398A1,1,0,0,1,203.8,399Z" transform="translate(-30.3 -23.03)"/><path class="cls-6" d="M189.22,399h0a1,1,0,0,1-1-1v-5.37a1,1,0,0,1,1-1h0a1,1,0,0,1,1,1V398A1,1,0,0,1,189.22,399Z" transform="translate(-30.3 -23.03)"/><path class="cls-5" d="M140,424.5a2.16,2.16,0,1,1-2.15-2.15A2.16,2.16,0,0,1,140,424.5Z" transform="translate(-30.3 -23.03)"/><path class="cls-5" d="M147.36,424.5a2.16,2.16,0,1,1-2.16-2.15A2.16,2.16,0,0,1,147.36,424.5Z" transform="translate(-30.3 -23.03)"/><path class="cls-4" d="M194.25,428.53h0a1,1,0,0,1-1-1v-5.37a1,1,0,0,1,1-1h0a1,1,0,0,1,1,1v5.37A1,1,0,0,1,194.25,428.53Z" transform="translate(-30.3 -23.03)"/><path class="cls-4" d="M199.22,428.53h0a1,1,0,0,1-1-1v-5.37a1,1,0,0,1,1-1h0a1,1,0,0,1,1,1v5.37A1,1,0,0,1,199.22,428.53Z" transform="translate(-30.3 -23.03)"/><path class="cls-5" d="M203.8,428.53h0a1,1,0,0,1-1-1v-5.37a1,1,0,0,1,1-1h0a1,1,0,0,1,1,1v5.37A1,1,0,0,1,203.8,428.53Z" transform="translate(-30.3 -23.03)"/><path class="cls-6" d="M189.22,428.53h0a1,1,0,0,1-1-1v-5.37a1,1,0,0,1,1-1h0a1,1,0,0,1,1,1v5.37A1,1,0,0,1,189.22,428.53Z" transform="translate(-30.3 -23.03)"/><path class="cls-5" d="M140,456.32a2.16,2.16,0,1,1-2.15-2.15A2.16,2.16,0,0,1,140,456.32Z" transform="translate(-30.3 -23.03)"/><path class="cls-5" d="M148,456.32a2.16,2.16,0,1,1-2.16-2.15A2.16,2.16,0,0,1,148,456.32Z" transform="translate(-30.3 -23.03)"/><path class="cls-4" d="M194.25,460.35h0a1,1,0,0,1-1-1V454a1,1,0,0,1,1-1h0a1,1,0,0,1,1,1v5.37A1,1,0,0,1,194.25,460.35Z" transform="translate(-30.3 -23.03)"/><path class="cls-4" d="M199.22,460.35h0a1,1,0,0,1-1-1V454a1,1,0,0,1,1-1h0a1,1,0,0,1,1,1v5.37A1,1,0,0,1,199.22,460.35Z" transform="translate(-30.3 -23.03)"/><path class="cls-5" d="M203.8,460.35h0a1,1,0,0,1-1-1V454a1,1,0,0,1,1-1h0a1,1,0,0,1,1,1v5.37A1,1,0,0,1,203.8,460.35Z" transform="translate(-30.3 -23.03)"/><path class="cls-6" d="M189.22,460.35h0a1,1,0,0,1-1-1V454a1,1,0,0,1,1-1h0a1,1,0,0,1,1,1v5.37A1,1,0,0,1,189.22,460.35Z" transform="translate(-30.3 -23.03)"/><rect class="cls-2" x="89.56" y="261.13" width="99.14" height="94.77" rx="3.87"/><path class="cls-4" d="M219.17,314.41c0,.11-22.14.19-49.45.19s-49.45-.08-49.45-.19,22.13-.19,49.45-.19S219.17,314.31,219.17,314.41Z" transform="translate(-30.3 -23.03)"/><path class="cls-4" d="M219.17,344.84c0,.11-22.14.19-49.45.19s-49.45-.08-49.45-.19,22.13-.19,49.45-.19S219.17,344.73,219.17,344.84Z" transform="translate(-30.3 -23.03)"/><path class="cls-5" d="M140,300.15a2.16,2.16,0,1,1-2.15-2.15A2.16,2.16,0,0,1,140,300.15Z" transform="translate(-30.3 -23.03)"/><path class="cls-5" d="M147.78,300.15a2.16,2.16,0,1,1-2.16-2.15A2.16,2.16,0,0,1,147.78,300.15Z" transform="translate(-30.3 -23.03)"/><path class="cls-4" d="M194.25,304.18h0a1,1,0,0,1-1-1v-5.37a1,1,0,0,1,1-1h0a1,1,0,0,1,1,1v5.37A1,1,0,0,1,194.25,304.18Z" transform="translate(-30.3 -23.03)"/><path class="cls-4" d="M199.22,304.18h0a1,1,0,0,1-1-1v-5.37a1,1,0,0,1,1-1h0a1,1,0,0,1,1,1v5.37A1,1,0,0,1,199.22,304.18Z" transform="translate(-30.3 -23.03)"/><path class="cls-5" d="M203.8,304.18h0a1,1,0,0,1-1-1v-5.37a1,1,0,0,1,1-1h0a1,1,0,0,1,1,1v5.37A1,1,0,0,1,203.8,304.18Z" transform="translate(-30.3 -23.03)"/><path class="cls-6" d="M189.22,304.18h0a1,1,0,0,1-1-1v-5.37a1,1,0,0,1,1-1h0a1,1,0,0,1,1,1v5.37A1,1,0,0,1,189.22,304.18Z" transform="translate(-30.3 -23.03)"/><path class="cls-5" d="M140,329.72a2.16,2.16,0,1,1-2.15-2.16A2.15,2.15,0,0,1,140,329.72Z" transform="translate(-30.3 -23.03)"/><circle class="cls-5" cx="114.9" cy="306.69" r="2.16"/><path class="cls-4" d="M194.25,333.74h0a1,1,0,0,1-1-1v-5.37a1,1,0,0,1,1-1h0a1,1,0,0,1,1,1v5.37A1,1,0,0,1,194.25,333.74Z" transform="translate(-30.3 -23.03)"/><path class="cls-4" d="M199.22,333.74h0a1,1,0,0,1-1-1v-5.37a1,1,0,0,1,1-1h0a1,1,0,0,1,1,1v5.37A1,1,0,0,1,199.22,333.74Z" transform="translate(-30.3 -23.03)"/><path class="cls-5" d="M203.8,333.74h0a1,1,0,0,1-1-1v-5.37a1,1,0,0,1,1-1h0a1,1,0,0,1,1,1v5.37A1,1,0,0,1,203.8,333.74Z" transform="translate(-30.3 -23.03)"/><path class="cls-6" d="M189.22,333.74h0a1,1,0,0,1-1-1v-5.37a1,1,0,0,1,1-1h0a1,1,0,0,1,1,1v5.37A1,1,0,0,1,189.22,333.74Z" transform="translate(-30.3 -23.03)"/><path class="cls-5" d="M140,361.53a2.16,2.16,0,1,1-2.15-2.15A2.16,2.16,0,0,1,140,361.53Z" transform="translate(-30.3 -23.03)"/><circle class="cls-5" cx="115.52" cy="338.51" r="2.16"/><path class="cls-4" d="M194.25,365.56h0a1,1,0,0,1-1-1V359.2a1,1,0,0,1,1-1h0a1,1,0,0,1,1,1v5.37A1,1,0,0,1,194.25,365.56Z" transform="translate(-30.3 -23.03)"/><path class="cls-4" d="M199.22,365.56h0a1,1,0,0,1-1-1V359.2a1,1,0,0,1,1-1h0a1,1,0,0,1,1,1v5.37A1,1,0,0,1,199.22,365.56Z" transform="translate(-30.3 -23.03)"/><path class="cls-5" d="M203.8,365.56h0a1,1,0,0,1-1-1V359.2a1,1,0,0,1,1-1h0a1,1,0,0,1,1,1v5.37A1,1,0,0,1,203.8,365.56Z" transform="translate(-30.3 -23.03)"/><path class="cls-6" d="M189.22,365.56h0a1,1,0,0,1-1-1V359.2a1,1,0,0,1,1-1h0a1,1,0,0,1,1,1v5.37A1,1,0,0,1,189.22,365.56Z" transform="translate(-30.3 -23.03)"/><path class="cls-4" d="M217.23,378.93c0,.13-21.14.23-47.21.23s-47.22-.1-47.22-.23,21.13-.23,47.22-.23S217.23,378.81,217.23,378.93Z" transform="translate(-30.3 -23.03)"/><path class="cls-4" d="M156.54,282.32s3.83-43.52,8.39-44.07,50.76-1.72,52.18,0-4,45.55-5.47,46S156.54,282.32,156.54,282.32Z" transform="translate(-30.3 -23.03)"/><path class="cls-9" d="M210.05,283.21m0-.81c-7.85,0-42.55-1.55-51.37-1.94,1.66-17.86,4.64-37.52,6.85-40.3,3.67-.33,21.15-.86,34.62-.86,10.05,0,13.84.29,15.25.48.2,6-3.43,36.56-5.07,42.62Z" transform="translate(-30.3 -23.03)"/><path class="cls-4" d="M104.47,257.78H181.1a0,0,0,0,1,0,0v3.49a0,0,0,0,1,0,0H101.52a0,0,0,0,1,0,0v-.54A3,3,0,0,1,104.47,257.78Z"/><g class="cls-8"><path d="M189.85,252.07h-2.58c.35-3.07.62-6,.58-7a49.85,49.85,0,0,0-5.6-.18c-4.95,0-11.37.19-12.72.31-.81,1-1.91,8.25-2.52,14.81l8.39.37c-.3,2.15-.57,4.52-.79,6.81,3.24.15,16,.71,18.88.71h.1a124.82,124.82,0,0,0,1.87-15.65A50.28,50.28,0,0,0,189.85,252.07Z" transform="translate(-30.3 -23.03)"/></g><g class="cls-8"><path d="M190.83,244.9a.62.62,0,0,0-.63.49c-.17.76-.24,1.76-.35,2.39s-.45,1.89.25,2.28a7.54,7.54,0,0,0,2.33.07l19,.61s1.4-5.06.75-5.28S194,245,190.83,244.9Z" transform="translate(-30.3 -23.03)"/></g><g class="cls-8"><path d="M166.28,272.48a.64.64,0,0,0-.64.49c-.17.76-.23,1.75-.35,2.39s-.44,1.88.26,2.28a7.53,7.53,0,0,0,2.33.07c6.32.2,32,.41,38.33.61,0,0,1.4-5.06.75-5.28S169.45,272.53,166.28,272.48Z" transform="translate(-30.3 -23.03)"/></g><g class="cls-8"><path d="M199.23,253.18a.36.36,0,0,0-.36.27c-.09.42-.13,1-.19,1.32s-.24,1,.14,1.26a4.26,4.26,0,0,0,1.29,0l10.49.34s.77-2.8.41-2.92S201,253.21,199.23,253.18Z" transform="translate(-30.3 -23.03)"/></g></g><g id="Character"><path class="cls-4" d="M111.93,215.32s-1.22-2.72.33-2.72,8.36,1.22,7.94,2.09a6.49,6.49,0,0,1-1.41,1.95Z" transform="translate(-30.3 -23.03)"/><path class="cls-4" d="M110.32,261.51s20.52-39.14,19.06-40.87c-4.08-4.87-27.2-5.57-27.62-4.72C99,221.45,83.9,251,84.3,252.54,85.61,257.42,110.32,261.51,110.32,261.51Z" transform="translate(-30.3 -23.03)"/><path class="cls-2" d="M108.15,258.67s20.48-38.69,18.56-39.78c-4.11-2.31-26.47-5.42-26.88-4.59-2.67,5.38-17.39,34.17-17,35.64C84.11,254.69,108.15,258.67,108.15,258.67Z" transform="translate(-30.3 -23.03)"/><path class="cls-4" d="M108.45,214.77s-2.11,2.58-1.44,3.06,10,1.52,10,1.52,1.59-2.91.94-3.07-8.9-2-10-1.51" transform="translate(-30.3 -23.03)"/><path class="cls-4" d="M92.41,160.29a4.7,4.7,0,0,0,4.9-3,2.81,2.81,0,0,0,.1-1.83,1.58,1.58,0,0,0-1.36-1.11,3.77,3.77,0,0,0,1.6-2.46,3,3,0,0,0-1-2.71,2.44,2.44,0,0,0-2.82-.16,2.88,2.88,0,0,0-1.64-2.61l-4.42,1Z" transform="translate(-30.3 -23.03)"/><path class="cls-10" d="M86.6,199.81l-.72-6.2s9.26-1.56,9.26-10.83c0-4.48-.74-13.71-1.52-22.05A17.27,17.27,0,0,0,76.2,145.05h-.89c-9.65.68-14.45,9.25-13.51,18.87l3.62,35" transform="translate(-30.3 -23.03)"/><path class="cls-11" d="M85.89,193.62a25.52,25.52,0,0,1-12.13-2.42s3.16,5.84,12.41,4.89Z" transform="translate(-30.3 -23.03)"/><path class="cls-4" d="M90.4,169.49a1.32,1.32,0,0,1-1.26,1.35,1.26,1.26,0,0,1-1.38-1.17A1.33,1.33,0,0,1,89,168.31,1.28,1.28,0,0,1,90.4,169.49Z" transform="translate(-30.3 -23.03)"/><path class="cls-4" d="M91.69,165.3c-.17.17-1.18-.56-2.6-.54s-2.47.75-2.62.58.08-.39.54-.73a3.53,3.53,0,0,1,2.09-.67,3.44,3.44,0,0,1,2.07.64C91.61,164.91,91.77,165.22,91.69,165.3Z" transform="translate(-30.3 -23.03)"/><path class="cls-4" d="M78,170a1.32,1.32,0,0,1-1.26,1.35,1.26,1.26,0,0,1-1.38-1.18,1.32,1.32,0,0,1,1.26-1.35A1.26,1.26,0,0,1,78,170Z" transform="translate(-30.3 -23.03)"/><path class="cls-4" d="M77.68,165.73c-.17.18-1.18-.55-2.6-.53s-2.47.75-2.62.57.08-.39.54-.72a3.6,3.6,0,0,1,2.09-.68,3.51,3.51,0,0,1,2.07.64C77.6,165.35,77.76,165.66,77.68,165.73Z" transform="translate(-30.3 -23.03)"/><path class="cls-4" d="M83,176.24a9.65,9.65,0,0,1,2.31-.44c.36,0,.71-.12.76-.37a1.81,1.81,0,0,0-.25-1.08l-1.11-2.76c-1.55-3.92-2.67-7.16-2.51-7.22s1.54,3.08,3.08,7l1.07,2.77a2.12,2.12,0,0,1,.2,1.43.9.9,0,0,1-.59.54,2.43,2.43,0,0,1-.61.09A9,9,0,0,1,83,176.24Z" transform="translate(-30.3 -23.03)"/><path class="cls-4" d="M78.8,177.28c.23,0,.25,1.53,1.59,2.61s3,.89,3,1.11-.36.31-1.06.33a3.81,3.81,0,0,1-2.5-.83,3.39,3.39,0,0,1-1.23-2.2C78.52,177.66,78.69,177.27,78.8,177.28Z" transform="translate(-30.3 -23.03)"/><path class="cls-4" d="M78,160.14c-.14.39-1.57.23-3.23.45s-3,.69-3.25.35c-.1-.17.13-.54.67-.92a5.66,5.66,0,0,1,4.93-.6C77.72,159.66,78,160,78,160.14Z" transform="translate(-30.3 -23.03)"/><path class="cls-4" d="M91.11,161.18c-.25.32-1.23,0-2.41,0s-2.18.24-2.42-.09c-.1-.17.06-.49.49-.8a3.48,3.48,0,0,1,3.89.07C91.08,160.69,91.22,161,91.11,161.18Z" transform="translate(-30.3 -23.03)"/><path class="cls-4" d="M92.68,156.49s-2.52-5.78-5.33-7.1c-3.42-1.6-4.83,2.14-8.07,1.28s-6.5-2.4-9.78.14c-3.58,2.77-1.86,4.67-2,8.79-.71,16.7-3.7,21.46-4.66,13.61-.1-.86-2.5-1.52-2.9-5.15-.52-4.72-.77-10.44.24-13.8.86-2.84,2.44-4.81,5.3-7,4.51-3.45,10.77-3.6,15-3.22S93,149.21,92.68,156.49Z" transform="translate(-30.3 -23.03)"/><path class="cls-10" d="M63.4,173a2.52,2.52,0,0,0-2.75-2.4c-1.73.19-3.64,1.19-3.48,4.77.28,6.34,6.59,4.75,6.59,4.57S63.54,175.6,63.4,173Z" transform="translate(-30.3 -23.03)"/><path class="cls-11" d="M62.27,177.56s-.1.08-.29.18a1.09,1.09,0,0,1-.82,0,2.73,2.73,0,0,1-1.37-2.39,3.46,3.46,0,0,1,.24-1.6,1.24,1.24,0,0,1,.79-.88.55.55,0,0,1,.66.27c.1.17.06.3.1.31s.13-.11.07-.37a.79.79,0,0,0-.27-.39.86.86,0,0,0-.62-.13,1.53,1.53,0,0,0-1.11,1,3.74,3.74,0,0,0-.3,1.79,2.85,2.85,0,0,0,1.73,2.66,1.17,1.17,0,0,0,1-.21C62.27,177.72,62.3,177.57,62.27,177.56Z" transform="translate(-30.3 -23.03)"/><path class="cls-6" d="M84,155.43h0Z" transform="translate(-30.3 -23.03)"/><path class="cls-4" d="M95.46,144.22a5.28,5.28,0,0,0-3.8-3.11,10,10,0,0,0-5,.3c.08-2.31-2.52-4-4.82-3.79s-4.29,1.58-6.16,2.94a6.08,6.08,0,0,0-8.24,2.87,5.47,5.47,0,0,0-7.91,5.21,4.23,4.23,0,0,0-1.91,7.23,3,3,0,0,0,1.67,5.45l4.42-4.26a4.71,4.71,0,0,0,5.13-4.42,5.32,5.32,0,0,0,5.62-1.53,3.85,3.85,0,0,0,6.25,1.31,4.5,4.5,0,0,0,7.83,2.4,4.13,4.13,0,0,0,5.44-6.18A3.64,3.64,0,0,0,95.46,144.22Z" transform="translate(-30.3 -23.03)"/><path class="cls-9" d="M68.51,153.71s0,.2-.09.53a3.24,3.24,0,0,1-3,2.06,3.43,3.43,0,0,1-2.59-1.17l.37,0a4,4,0,0,1-1.2,1.21,4.05,4.05,0,0,1-3.37.48A3.87,3.87,0,0,1,56.54,155a3.67,3.67,0,0,1-.5-1.8,1.44,1.44,0,0,1,.1-.68,5,5,0,0,0,.68,2.31,3.66,3.66,0,0,0,2,1.54,3.72,3.72,0,0,0,3-.47,3.46,3.46,0,0,0,1.06-1.06l.17-.26.2.24a3.09,3.09,0,0,0,2.24,1.06,2.86,2.86,0,0,0,1.91-.66A4.48,4.48,0,0,0,68.51,153.71Z" transform="translate(-30.3 -23.03)"/><path class="cls-4" d="M98.22,447.94l-1.77,18.78s20,7.65,20.24,11.43l-37.85.11,0-2.83,1.59-9.66L82.79,447Z" transform="translate(-30.3 -23.03)"/><path class="cls-9" d="M100.49,467.53c.05.19-.78.52-1.43,1.34s-.72,1.7-1,1.69-.31-1.11.51-2.12S100.49,467.35,100.49,467.53Z" transform="translate(-30.3 -23.03)"/><path class="cls-9" d="M102.8,472.54c-.17,0-.43-.93.06-2s1.38-1.49,1.46-1.33-.51.82-.86,1.61S103,472.52,102.8,472.54Z" transform="translate(-30.3 -23.03)"/><path class="cls-9" d="M78.84,478.26l0-2.83,36.31.71s1.72.77,1.52,2Z" transform="translate(-30.3 -23.03)"/><path class="cls-9" d="M97.08,466.52c0,.2-1,.28-1.88.9-1.09.68-1.3,1.49-1.61,1.36s.11-1.2,1.25-1.93S97.12,466.35,97.08,466.52Z" transform="translate(-30.3 -23.03)"/><path class="cls-4" d="M98.42,462c-.08.17-.94-.09-2,0s-1.91.41-2,.24.7-.85,2-.92S98.52,461.86,98.42,462Z" transform="translate(-30.3 -23.03)"/><path class="cls-4" d="M51.7,448.47l-1.63,18.46S69.79,474.32,70,478l-37.19.34V475.6l1.5-9.5,2.19-18.45Z" transform="translate(-30.3 -23.03)"/><path class="cls-9" d="M32.84,478.38V475.6l35.68.47s1.69.75,1.51,2Z" transform="translate(-30.3 -23.03)"/><path class="cls-9" d="M50.69,466.73c0,.19-.93.28-1.85.9S47.45,469,47.28,469s.1-1.17,1.21-1.9S50.73,466.56,50.69,466.73Z" transform="translate(-30.3 -23.03)"/><path class="cls-9" d="M54.69,468.41c0,.18-.76.51-1.39,1.31s-.81,1.66-1,1.65-.31-1.08.49-2.07S54.68,468.23,54.69,468.41Z" transform="translate(-30.3 -23.03)"/><path class="cls-9" d="M57,473.28c-.17,0-.43-.9.05-1.95s1.34-1.46,1.42-1.3-.46.72-.84,1.58S57.16,473.26,57,473.28Z" transform="translate(-30.3 -23.03)"/><path class="cls-4" d="M52,462.29c-.07.17-.93-.09-2,0s-1.87.42-2,.26.68-.85,1.92-.92S52.07,462.14,52,462.29Z" transform="translate(-30.3 -23.03)"/><path class="cls-4" d="M98.77,284.62s4.24,26.73,4.57,46.49,1.89,46.48-2.35,81.14-1.79,55.21-1.79,55.21l-23,.31s-1.28-24.08-1-43.51,1.89-25.6,0-47-5-34.23-8.18-40.71c0,0-8.89-10.24-9.54-24.29A66.62,66.62,0,0,1,62,286.15Z" transform="translate(-30.3 -23.03)"/><path class="cls-4" d="M80.89,321.89c-.35,1.07-4.73,42.18-11.27,60.83-6.32,18-7.84,27.5-10.55,42.93-3.39,19.3-5.56,41.56-5.56,41.56l-22,1.58s2.1-36.61,5.27-62.58,6.5-58.15,5.8-67.76-1.21-21.31,1.25-34.76,3.42-21.35,3.42-21.35l23.53,3.49Z" transform="translate(-30.3 -23.03)"/><path class="cls-6" d="M45.77,206.44l1-3.4S38.49,204.36,35,216.79c-1.13,4-2.4,26.83-4.39,37.28a14.77,14.77,0,0,0,2.86,12.14c2.62,3.25,6.69,5.58,12.45,2,4-2.49,14.23-12.78,14.23-12.78Z" transform="translate(-30.3 -23.03)"/><path class="cls-10" d="M151,219.38a11.79,11.79,0,0,1,1.5-3.94c1.1-1.58,8.36-7.21,13.7-9.76s6.24-2.91,6.86-1.38-1.68,2.61-4.46,4.22a35.36,35.36,0,0,0-4,2.6s3.1.94,2.34,3.94c0,0,2.94,3.06.32,5.32,0,0,1.81,1.07-.27,3.55l-9.63,4.37c-.08.07-5.1,8.22-5.1,8.22s-7.17-7-7.13-6.76Z" transform="translate(-30.3 -23.03)"/><path class="cls-6" d="M103.54,282.34l1.25-47.4v-3l-4.32-12.18C99,213.43,97.93,202,97.93,202l-15-3.7-23,.65-14.72,4.62L44,233l-.52,48.26a9,9,0,0,0,1.33,4.81,22.42,22.42,0,0,0,1.91,2.8c.8.84,39.29,1.76,52.48.65C101.89,289.29,103.34,285.06,103.54,282.34Z" transform="translate(-30.3 -23.03)"/><path class="cls-6" d="M89,200.36c-.21-.21-2.62-3.9-5.16-4.56-1.57-.41-12.31-3-17.84-2.3a6.77,6.77,0,0,0-3.54,1.24l-3.58,6.32Z" transform="translate(-30.3 -23.03)"/><path class="cls-6" d="M147.49,220.9c-.13.33-17.13,15.44-17.13,15.44S117.7,221,113.54,215.62s-9.06-11.94-14.22-13.57-13.65.58-13.65.58l7.92,24.42,9.87,13.52s14.4,14.18,20.15,17.3c5.24,2.83,11.83-.13,14.59-2.63s19.67-24.62,19.67-24.62Z" transform="translate(-30.3 -23.03)"/><path class="cls-4" d="M42.12,221.76a3.42,3.42,0,0,1,.26.45,10.61,10.61,0,0,1,.58,1.38A19.87,19.87,0,0,1,43.9,229c.19,4.62.24,11,.31,18s0,13.39-.1,18c-.06,2.3-.11,4.17-.17,5.45,0,.6-.06,1.09-.08,1.49a1.77,1.77,0,0,1-.06.51,1.93,1.93,0,0,1,0-.52c0-.39,0-.88,0-1.48,0-1.35,0-3.2,0-5.45,0-4.6,0-11,0-18s-.07-13.39-.16-18a22.22,22.22,0,0,0-.79-5.35C42.41,222.42,42.07,221.78,42.12,221.76Z" transform="translate(-30.3 -23.03)"/><path class="cls-4" d="M93.52,225.39a3.5,3.5,0,0,1-.31-.86c-.18-.56-.41-1.39-.67-2.41a32.53,32.53,0,0,1-1.15-8.18,16.54,16.54,0,0,1,2-8,11.23,11.23,0,0,1,1.49-2,3,3,0,0,1,.69-.62,23,23,0,0,0-1.88,2.81,17.34,17.34,0,0,0-1.82,7.85,38.37,38.37,0,0,0,1,8.11A27.37,27.37,0,0,1,93.52,225.39Z" transform="translate(-30.3 -23.03)"/><path class="cls-4" d="M86.17,199.38a5.36,5.36,0,0,1-1.08-.1c-.7-.1-1.7-.23-2.94-.37a84.55,84.55,0,0,0-19.43-.06c-1.24.13-2.24.26-2.94.35a4.84,4.84,0,0,1-1.08.09,4.63,4.63,0,0,1,1-.27c.69-.15,1.69-.32,2.93-.5a66.76,66.76,0,0,1,9.76-.68,70.36,70.36,0,0,1,9.76.73c1.24.19,2.23.37,2.92.53A4.26,4.26,0,0,1,86.17,199.38Z" transform="translate(-30.3 -23.03)"/><path class="cls-9" d="M74.56,366.82a3.34,3.34,0,0,1-.13-.56c-.08-.42-.18-1-.3-1.63-.23-1.41-.55-3.46-.93-6-.78-5.06-1.75-12.09-3.6-19.68A46.5,46.5,0,0,0,66,328.63c-.83-1.44-1.79-2.75-2.62-4s-1.55-2.47-2.18-3.59a22.88,22.88,0,0,1-2.36-5.61,7.56,7.56,0,0,1-.2-1.65,2.13,2.13,0,0,1,.06-.58,11.75,11.75,0,0,0,.32,2.18,24,24,0,0,0,2.48,5.49c.63,1.11,1.38,2.3,2.21,3.55s1.8,2.53,2.68,4a45.79,45.79,0,0,1,3.71,10.42,188.86,188.86,0,0,1,3.47,19.75c.33,2.49.59,4.54.79,6,.08.67.15,1.21.2,1.64A1.89,1.89,0,0,1,74.56,366.82Z" transform="translate(-30.3 -23.03)"/><path class="cls-4" d="M134.59,244.08c-.13,0-.84-1.63-2-3.56s-2.23-3.37-2.12-3.46a10.6,10.6,0,0,1,2.53,3.23A10.44,10.44,0,0,1,134.59,244.08Z" transform="translate(-30.3 -23.03)"/><path class="cls-4" d="M96.07,231.74c.11-.08,2,2.24,4.42,5s4.48,4.95,4.38,5a7.58,7.58,0,0,1-1.49-1.28c-.87-.85-2-2-3.25-3.45s-2.26-2.7-3-3.67A7.44,7.44,0,0,1,96.07,231.74Z" transform="translate(-30.3 -23.03)"/></g></svg>