<svg id="Layer_1" data-name="Layer 1" xmlns="http://www.w3.org/2000/svg" viewBox="0 0 592.2 114.06"><defs><style>.cls-1,.cls-3{fill:#fff;}.cls-2,.cls-3{font-size:84.52px;font-family:NasalizationRg-Regular, Nasalization;}.cls-2{fill:#bdc3c7;}.cls-4{fill:none;}</style></defs><path class="cls-1" d="M171.74,38.49,164.24,31V22l-4.81-4.81h-7.94V14.29L144.4,7.2H133.53L130.1,3.77h-8.8l-4.48,4.48.06-4.39-9.65-.09-.36,12.43L92.26,22.06l-9.88-7.67L68.27,26.76l8.77,9L70.4,49.22l-11.93,1L58.11,67.5l12.63.74,5,13.46L67.2,92l14.1,11.75,8.29-7.84,16.18,5.3V112h11a2.6,2.6,0,0,0-2.61-2.6H109V99.33L89.82,92.65l-8.41,8L70.87,91.53l7.57-9.59-6-16.18-11.82-.43.36-12.75,11.28-.77L80.43,35l-8.62-8.25,10.78-9.2,9.51,7.24,17.22-6.88.27-11.35h4.7l0,4.27h0l0,5h0a3.12,3.12,0,1,0,2.5,0h0l0-3.83L122,6.74h7.27l7.16,7.16a3,3,0,0,0-.42,1.55,3.06,3.06,0,1,0,3.06-3.06,3.14,3.14,0,0,0-1.23.25l-2.37-2.37h8l5.31,5.32V28.25l3.35,3.35a3.05,3.05,0,0,0,3,4.11,3.06,3.06,0,0,0-.1-6.12,3.19,3.19,0,0,0-1,.16L151.27,27V19.53h6.63l3.59,3.59V36.9L157,41.44h-7.7l-7.64-7.64V27.36l-7.94-7.93h-5a3.06,3.06,0,0,0-5.77,1.51,3.09,3.09,0,0,0,2.9,3,3.05,3.05,0,0,0,3-1.88h3.72l6.52,6.53v6.8l9.1,9.1h9.91l6.08-6.08V34.72l4.8,4.79v9.27L163.7,54l-3.82-3.83H151l-6.12,6.12H129.45L126.76,59a3.27,3.27,0,0,0-.78-.1A3.06,3.06,0,0,0,126,65,3.1,3.1,0,0,0,129,62.24a3.63,3.63,0,0,0-.06-.94l2.5-2.5h14.79L152.08,53H159l10.2,10.21v8.62L157,84a3.15,3.15,0,0,0-1.38-.26,3.1,3.1,0,0,0-2.92,3.1,3.06,3.06,0,0,0,3.17,3,3.1,3.1,0,0,0,2.9-3.61h0l5-5V91.6l-5.12,5.11h-9.84a3.06,3.06,0,1,0-.12,2.57h3.56l-5.45,5.46h-8.45l1.8-1.8v-9.4l6.49-6.49V80.61h5.53l6.06-6.06V67.62a3.05,3.05,0,1,0-3.15,0v5.51L151,77.34h-4.41V72.61l-6.07-6.06a2.8,2.8,0,0,0,.08-.58,3.06,3.06,0,1,0-2.92,3l.27,0,5.25,5.25V85.78L131,98h-3.09a3.06,3.06,0,1,0-.12,3.27h4.46l5.41-5.41v6L130,109.46l-5.64-.06a2.87,2.87,0,0,1-2-.83l-5.4-5.41V88.86l2.3-2.31L123,90.23h6.62l5.31-5.31a3,3,0,0,0,1,.17A3.06,3.06,0,1,0,132.86,82a8.8,8.8,0,0,0,.47,1.59L129.13,88h-5.49l-7-7.38V72.82l2.47-2.1,4.07,3.75H127a3.05,3.05,0,0,0,5.88-1.25A3.06,3.06,0,0,0,127,72.05h-2.89l-7.35-7.35V53.63l5.33-5.34h5.51a3.06,3.06,0,1,0-.11-2.58h-6.13l-1.49,1.49-.3-.23a14.65,14.65,0,0,0-11.93-5.25c-10,.56-16.24,7.57-16.25,16.92s7.28,16.93,16.25,16.93a15.67,15.67,0,0,0,7-1.65v7.49L117.59,85,114.5,87.4v17s4.34,3.71,6.54,6a5.48,5.48,0,0,0,4,1.67l7-.08,4.08-4.08h11l8.24-8.24h4.53l6.79-6.79V78.27l4.69-4.68V61.88l-5.78-5.78,6.2-6.19ZM115.48,19.2a.52.52,0,0,1-.52-.52.52.52,0,0,1,.52-.53.53.53,0,0,1,.53.53A.52.52,0,0,1,115.48,19.2Zm23.59-4.28a.53.53,0,0,1,0,1.05.53.53,0,1,1,0-1.05Zm16,17.21a.52.52,0,0,1,.53.52.53.53,0,0,1-.53.53.52.52,0,0,1-.52-.53A.52.52,0,0,1,155,32.13ZM126,21.38a.52.52,0,0,1-.52-.52.53.53,0,1,1,1.05,0A.52.52,0,0,1,126,21.38Zm0,41.11a.53.53,0,0,1,0-1.06.53.53,0,0,1,0,1.06ZM155.8,87.32a.52.52,0,0,1-.53-.52.53.53,0,0,1,.53-.53.52.52,0,0,1,.52.53A.52.52,0,0,1,155.8,87.32ZM146,98.39a.52.52,0,0,1-.52-.52.52.52,0,0,1,.52-.53.53.53,0,0,1,.53.53A.52.52,0,0,1,146,98.39ZM156.69,64.5a.52.52,0,0,1,.52.52.52.52,0,0,1-.52.53.53.53,0,0,1-.53-.53A.52.52,0,0,1,156.69,64.5Zm-19.16,1.89a.52.52,0,0,1-.52-.52.52.52,0,0,1,.52-.53.53.53,0,0,1,.53.53A.52.52,0,0,1,137.53,66.39ZM125.3,100a.52.52,0,0,1-.52-.53.52.52,0,0,1,1,0A.52.52,0,0,1,125.3,100ZM135.92,81.5a.52.52,0,0,1,.52.53.52.52,0,0,1-.52.52.52.52,0,0,1-.53-.52A.53.53,0,0,1,135.92,81.5Zm-6.12-8.71a.52.52,0,0,1,.52.52.52.52,0,1,1-1,0A.52.52,0,0,1,129.8,72.79Zm.53-26.44a.53.53,0,0,1,0,1.06.53.53,0,0,1,0-1.06ZM107.61,73.84c-8,0-14.46-6.79-14.45-15.16S98.75,44,107.61,43.53c4.2-.24,8.38,2.22,10.62,4.74h0l.2.28-4,3.55V65.43l3.55,3.69A14,14,0,0,1,107.61,73.84Z" transform="translate(-1.05 -0.62)"/><path class="cls-1" d="M116.52,29.87l2.85-.14-2.73,2.55a3.11,3.11,0,0,0-1.4-.33,3.15,3.15,0,1,0,3.14,3.14,3.19,3.19,0,0,0-.25-1.24l2.57-2.38L126,37.69h5.84l7.52,7.52v1.94a3.06,3.06,0,1,0,2.5,0v-2.8l-8.89-8.89h-5.82l-6.29-7.25a2.73,2.73,0,0,0-2.12-.94l-4.57.08S81.36,28,80.61,61.45h2.47S82.86,30.24,116.52,29.87Zm-1.28,5.74a.52.52,0,1,1,0-1,.52.52,0,1,1,0,1Zm25.35,13.8a.53.53,0,0,1,.53.53.53.53,0,0,1-1.05,0A.52.52,0,0,1,140.59,49.41Z" transform="translate(-1.05 -0.62)"/><path class="cls-1" d="M109.48,87.54a1.06,1.06,0,0,0-1-.9,29.05,29.05,0,0,1-20.1-7.78l-1.73,1.76a33,33,0,0,0,21.83,8.12A1.05,1.05,0,0,0,109.48,87.54Z" transform="translate(-1.05 -0.62)"/><text class="cls-2" transform="translate(180.54 88.55) scale(0.81 1)">Specwise</text><text class="cls-3" transform="translate(180.54 88.55) scale(0.81 1)">Specwise</text><rect class="cls-4" x="564.2" width="28" height="114.06"/><rect class="cls-4" width="28" height="114.06"/></svg>